<svg xmlns="http://www.w3.org/2000/svg" xmlns:xlink="http://www.w3.org/1999/xlink" width="684px" height="608px" viewBox="0 0 684 608"><g id="surface1"><path style=" stroke:none;fill-rule:nonzero;fill:rgb(90.196078%,90.196078%,90.196078%);fill-opacity:1;" d="M 569.84375 143.972656 L 566.59375 143.972656 L 566.59375 52.78125 C 566.59375 23.628906 543.515625 0 515.042969 0 L 326.34375 0 C 297.871094 0 274.792969 23.628906 274.792969 52.78125 L 274.792969 553.070312 C 274.792969 582.21875 297.871094 605.847656 326.34375 605.847656 L 515.042969 605.847656 C 543.511719 605.847656 566.59375 582.21875 566.59375 553.070312 L 566.59375 208.882812 L 569.84375 208.882812 Z M 569.84375 143.972656 "></path><path style=" stroke:none;fill-rule:nonzero;fill:rgb(100%,100%,100%);fill-opacity:1;" d="M 517.125 13.726562 L 492.492188 13.726562 C 494.792969 19.5 494.136719 26.070312 490.738281 31.246094 C 487.339844 36.421875 481.648438 39.527344 475.558594 39.523438 L 367.453125 39.523438 C 361.363281 39.523438 355.671875 36.421875 352.273438 31.246094 C 348.878906 26.070312 348.21875 19.5 350.519531 13.726562 L 327.515625 13.726562 C 306.253906 13.726562 289.015625 31.375 289.015625 53.144531 L 289.015625 552.703125 C 289.015625 574.472656 306.253906 592.121094 327.515625 592.121094 L 517.125 592.121094 C 538.386719 592.121094 555.621094 574.472656 555.621094 552.703125 L 555.621094 53.140625 C 555.621094 31.375 538.382812 13.726562 517.125 13.726562 Z M 517.125 13.726562 "></path><path style=" stroke:none;fill-rule:nonzero;fill:rgb(24.705882%,23.921569%,33.72549%);fill-opacity:1;" d="M 364.964844 130.25 C 362.886719 130.269531 360.898438 129.382812 359.496094 127.8125 C 357.832031 125.84375 357.050781 123.25 357.332031 120.664062 C 357.527344 118.222656 358.527344 115.925781 360.164062 114.144531 C 361.753906 112.386719 363.980469 111.375 366.320312 111.351562 C 368.496094 111.34375 370.578125 112.28125 372.039062 113.933594 C 373.695312 115.851562 374.496094 118.390625 374.242188 120.9375 C 374.085938 123.527344 372.996094 125.960938 371.183594 127.769531 C 369.496094 129.378906 367.269531 130.265625 364.964844 130.25 Z M 366.320312 114.5 C 363.308594 114.5 360.707031 117.328125 360.398438 120.9375 C 360.191406 122.648438 360.6875 124.367188 361.765625 125.683594 C 362.582031 126.605469 363.75 127.121094 364.964844 127.101562 C 367.78125 127.101562 370.792969 125.109375 371.175781 120.664062 C 371.355469 118.996094 370.84375 117.324219 369.769531 116.058594 C 368.886719 115.0625 367.632812 114.496094 366.320312 114.5 Z M 372.707031 120.800781 Z M 372.707031 120.800781 "></path><path style=" stroke:none;fill-rule:nonzero;fill:rgb(24.705882%,23.921569%,33.72549%);fill-opacity:1;" d="M 365.066406 139.699219 C 360.25 139.78125 355.636719 137.738281 352.390625 134.097656 C 349.148438 130.457031 347.585938 125.5625 348.105469 120.664062 C 349.148438 110.140625 357.714844 102.078125 368.046875 101.902344 C 373.585938 101.902344 378.140625 103.722656 381.222656 107.171875 C 384.148438 110.4375 385.515625 115.039062 385.078125 120.125 C 384.664062 124.941406 382.667969 127.453125 381.066406 128.707031 C 379.636719 129.902344 377.792969 130.441406 375.960938 130.207031 C 373.429688 129.746094 370.628906 127.390625 371.070312 122.265625 L 371.886719 112.792969 C 371.964844 111.929688 372.710938 111.292969 373.550781 111.371094 C 374.394531 111.445312 375.019531 112.207031 374.949219 113.070312 L 374.136719 122.542969 C 373.917969 125.089844 374.800781 126.796875 376.5 127.105469 C 377.476562 127.183594 378.449219 126.859375 379.195312 126.207031 C 380.304688 125.335938 381.699219 123.523438 382.011719 119.847656 C 382.378906 115.59375 381.320312 111.945312 378.957031 109.296875 C 376.472656 106.519531 372.699219 105.050781 368.046875 105.050781 C 359.308594 105.222656 352.066406 112.039062 351.167969 120.9375 C 350.726562 124.957031 351.996094 128.980469 354.660156 131.96875 C 357.320312 134.960938 361.113281 136.628906 365.066406 136.550781 C 367.472656 136.683594 369.878906 136.234375 372.089844 135.246094 C 372.871094 134.914062 373.769531 135.289062 374.097656 136.089844 C 374.425781 136.890625 374.0625 137.808594 373.28125 138.148438 C 370.695312 139.300781 367.882812 139.832031 365.066406 139.699219 Z M 365.066406 139.699219 "></path><path style=" stroke:none;fill-rule:nonzero;fill:rgb(24.705882%,23.921569%,33.72549%);fill-opacity:1;" d="M 348.824219 364.804688 C 348.203125 364.804688 347.640625 364.421875 347.402344 363.832031 C 347.164062 363.242188 347.296875 362.566406 347.738281 362.117188 L 357.734375 351.878906 C 358.335938 351.273438 359.304688 351.277344 359.902344 351.886719 C 360.5 352.5 360.503906 353.492188 359.910156 354.105469 L 349.914062 364.34375 C 349.625 364.640625 349.234375 364.804688 348.824219 364.804688 Z M 374.203125 360.867188 C 373.582031 360.867188 373.019531 360.484375 372.78125 359.894531 C 372.542969 359.308594 372.675781 358.628906 373.117188 358.179688 L 381.574219 349.515625 C 382.179688 348.910156 383.144531 348.914062 383.742188 349.527344 C 384.339844 350.136719 384.34375 351.128906 383.75 351.746094 L 375.292969 360.40625 C 375.003906 360.703125 374.613281 360.867188 374.203125 360.867188 Z M 369.589844 360.867188 C 369.179688 360.867188 368.789062 360.703125 368.5 360.40625 L 362.347656 354.105469 C 361.957031 353.710938 361.800781 353.128906 361.941406 352.582031 C 362.085938 352.035156 362.5 351.609375 363.035156 351.464844 C 363.570312 351.316406 364.136719 351.476562 364.523438 351.878906 L 370.675781 358.179688 C 371.117188 358.628906 371.25 359.308594 371.011719 359.894531 C 370.773438 360.484375 370.210938 360.867188 369.589844 360.867188 Z M 369.589844 360.867188 "></path><path style=" stroke:none;fill-rule:nonzero;fill:rgb(24.705882%,23.921569%,33.72549%);fill-opacity:1;" d="M 384.972656 352.207031 C 382.847656 352.207031 381.125 350.441406 381.125 348.269531 C 381.125 346.09375 382.847656 344.332031 384.972656 344.332031 C 387.09375 344.332031 388.816406 346.09375 388.816406 348.269531 C 388.8125 350.441406 387.09375 352.203125 384.972656 352.207031 Z M 384.972656 347.480469 C 384.546875 347.480469 384.203125 347.832031 384.203125 348.269531 C 384.203125 348.703125 384.546875 349.054688 384.972656 349.054688 C 385.394531 349.054688 385.738281 348.703125 385.738281 348.269531 C 385.738281 347.832031 385.394531 347.480469 384.972656 347.480469 Z M 384.972656 347.480469 "></path><path style=" stroke:none;fill-rule:nonzero;fill:rgb(24.705882%,23.921569%,33.72549%);fill-opacity:1;" d="M 371.898438 365.59375 C 369.773438 365.59375 368.050781 363.828125 368.050781 361.65625 C 368.050781 359.480469 369.773438 357.71875 371.898438 357.71875 C 374.019531 357.71875 375.742188 359.480469 375.742188 361.65625 C 375.738281 363.828125 374.019531 365.589844 371.898438 365.59375 Z M 371.898438 360.867188 C 371.472656 360.867188 371.128906 361.21875 371.128906 361.65625 C 371.128906 362.089844 371.472656 362.441406 371.898438 362.441406 C 372.320312 362.441406 372.664062 362.089844 372.664062 361.65625 C 372.664062 361.21875 372.320312 360.867188 371.898438 360.867188 Z M 371.898438 360.867188 "></path><path style=" stroke:none;fill-rule:nonzero;fill:rgb(24.705882%,23.921569%,33.72549%);fill-opacity:1;" d="M 361.128906 354.566406 C 359.007812 354.566406 357.285156 352.804688 357.285156 350.632812 C 357.285156 348.457031 359.007812 346.695312 361.128906 346.695312 C 363.253906 346.695312 364.976562 348.457031 364.976562 350.632812 C 364.972656 352.804688 363.253906 354.566406 361.128906 354.566406 Z M 361.128906 349.84375 C 360.707031 349.84375 360.359375 350.195312 360.359375 350.632812 C 360.359375 351.066406 360.707031 351.417969 361.128906 351.417969 C 361.554688 351.417969 361.898438 351.066406 361.898438 350.632812 C 361.898438 350.195312 361.554688 349.84375 361.128906 349.84375 Z M 361.128906 349.84375 "></path><path style=" stroke:none;fill-rule:nonzero;fill:rgb(24.705882%,23.921569%,33.72549%);fill-opacity:1;" d="M 346.519531 369.527344 C 344.394531 369.527344 342.671875 367.765625 342.671875 365.59375 C 342.671875 363.417969 344.394531 361.65625 346.519531 361.65625 C 348.640625 361.65625 350.363281 363.417969 350.363281 365.59375 C 350.359375 367.765625 348.640625 369.527344 346.519531 369.527344 Z M 346.519531 364.804688 C 346.09375 364.804688 345.75 365.15625 345.75 365.59375 C 345.75 366.027344 346.09375 366.378906 346.519531 366.378906 C 346.941406 366.378906 347.285156 366.027344 347.285156 365.59375 C 347.285156 365.15625 346.941406 364.804688 346.519531 364.804688 Z M 346.519531 364.804688 "></path><path style=" stroke:none;fill-rule:nonzero;fill:rgb(24.705882%,23.921569%,33.72549%);fill-opacity:1;" d="M 492.492188 490.976562 L 460.191406 490.976562 C 457.21875 490.972656 454.8125 488.507812 454.808594 485.464844 L 454.808594 461.839844 C 454.8125 458.796875 457.21875 456.332031 460.191406 456.328125 L 492.492188 456.328125 C 495.464844 456.332031 497.871094 458.796875 497.875 461.839844 L 497.875 485.464844 C 497.871094 488.507812 495.464844 490.972656 492.492188 490.976562 Z M 460.191406 459.480469 C 458.917969 459.480469 457.886719 460.535156 457.882812 461.839844 L 457.882812 485.464844 C 457.886719 486.769531 458.917969 487.824219 460.191406 487.824219 L 492.492188 487.824219 C 493.765625 487.824219 494.796875 486.769531 494.796875 485.464844 L 494.796875 461.839844 C 494.796875 460.535156 493.765625 459.480469 492.492188 459.480469 Z M 460.191406 459.480469 "></path><path style=" stroke:none;fill-rule:nonzero;fill:rgb(24.705882%,23.921569%,33.72549%);fill-opacity:1;" d="M 476.339844 476.800781 C 476 476.800781 475.667969 476.683594 475.398438 476.46875 L 461.554688 465.445312 C 460.882812 464.914062 460.761719 463.921875 461.285156 463.238281 C 461.804688 462.550781 462.773438 462.425781 463.441406 462.960938 L 476.339844 473.230469 L 489.238281 462.960938 C 489.910156 462.425781 490.878906 462.550781 491.398438 463.238281 C 491.921875 463.921875 491.800781 464.914062 491.128906 465.445312 L 477.285156 476.46875 C 477.015625 476.683594 476.683594 476.800781 476.339844 476.800781 Z M 476.339844 476.800781 "></path><path style=" stroke:none;fill-rule:nonzero;fill:rgb(80%,80%,80%);fill-opacity:1;" d="M 649.828125 512.777344 L 471.902344 512.851562 C 471.433594 512.851562 471.050781 512.460938 471.050781 511.980469 C 471.050781 511.496094 471.433594 511.109375 471.902344 511.109375 L 649.828125 511.035156 C 650.300781 511.035156 650.679688 511.425781 650.679688 511.90625 C 650.679688 512.386719 650.300781 512.777344 649.828125 512.777344 Z M 649.828125 512.777344 "></path><path style=" stroke:none;fill-rule:nonzero;fill:rgb(42.352941%,38.823529%,100%);fill-opacity:1;" d="M 659.371094 511.90625 C 659.371094 518.640625 654.039062 524.101562 647.460938 524.101562 C 640.882812 524.101562 635.550781 518.640625 635.550781 511.90625 C 635.550781 505.171875 640.882812 499.710938 647.460938 499.710938 C 654.039062 499.710938 659.371094 505.171875 659.371094 511.90625 Z M 659.371094 511.90625 "></path><path style=" stroke:none;fill-rule:nonzero;fill:rgb(80%,80%,80%);fill-opacity:1;" d="M 645.574219 279.332031 L 465.949219 279.40625 C 465.476562 279.40625 465.097656 279.015625 465.097656 278.535156 C 465.097656 278.054688 465.476562 277.664062 465.949219 277.664062 L 645.574219 277.589844 C 646.046875 277.589844 646.425781 277.980469 646.425781 278.460938 C 646.425781 278.945312 646.046875 279.332031 645.574219 279.332031 Z M 645.574219 279.332031 "></path><path style=" stroke:none;fill-rule:nonzero;fill:rgb(42.352941%,38.823529%,100%);fill-opacity:1;" d="M 659.371094 279.332031 C 659.371094 286.070312 654.039062 291.527344 647.460938 291.527344 C 640.882812 291.527344 635.550781 286.070312 635.550781 279.332031 C 635.550781 272.597656 640.882812 267.140625 647.460938 267.140625 C 654.039062 267.140625 659.371094 272.597656 659.371094 279.332031 Z M 659.371094 279.332031 "></path><path style=" stroke:none;fill-rule:nonzero;fill:rgb(80%,80%,80%);fill-opacity:1;" d="M 185.691406 160 L 365.316406 160.070312 C 365.789062 160.070312 366.167969 159.679688 366.167969 159.199219 C 366.167969 158.71875 365.789062 158.328125 365.316406 158.328125 L 185.691406 158.257812 C 185.21875 158.257812 184.839844 158.644531 184.839844 159.128906 C 184.839844 159.609375 185.21875 160 185.691406 160 Z M 185.691406 160 "></path><path style=" stroke:none;fill-rule:nonzero;fill:rgb(42.352941%,38.823529%,100%);fill-opacity:1;" d="M 195.714844 160 C 195.714844 166.734375 190.382812 172.195312 183.804688 172.195312 C 177.226562 172.195312 171.894531 166.734375 171.894531 160 C 171.894531 153.261719 177.226562 147.804688 183.804688 147.804688 C 190.382812 147.804688 195.714844 153.261719 195.714844 160 Z M 195.714844 160 "></path><path style=" stroke:none;fill-rule:nonzero;fill:rgb(80%,80%,80%);fill-opacity:1;" d="M 185.691406 396.054688 L 365.316406 396.128906 C 365.789062 396.128906 366.167969 395.738281 366.167969 395.257812 C 366.167969 394.777344 365.789062 394.386719 365.316406 394.386719 L 185.691406 394.3125 C 185.21875 394.3125 184.839844 394.703125 184.839844 395.183594 C 184.839844 395.664062 185.21875 396.054688 185.691406 396.054688 Z M 185.691406 396.054688 "></path><path style=" stroke:none;fill-rule:nonzero;fill:rgb(42.352941%,38.823529%,100%);fill-opacity:1;" d="M 195.714844 396.054688 C 195.714844 402.789062 190.382812 408.25 183.804688 408.25 C 177.226562 408.25 171.894531 402.789062 171.894531 396.054688 C 171.894531 389.320312 177.226562 383.859375 183.804688 383.859375 C 190.382812 383.859375 195.714844 389.320312 195.714844 396.054688 Z M 195.714844 396.054688 "></path><path style=" stroke:none;fill-rule:nonzero;fill:rgb(80%,80%,80%);fill-opacity:1;" d="M 476.339844 512.851562 C 455.199219 512.851562 438.058594 495.300781 438.058594 473.652344 C 438.058594 452.003906 455.199219 434.453125 476.339844 434.453125 C 497.484375 434.453125 514.625 452.003906 514.625 473.652344 C 514.601562 495.289062 497.476562 512.824219 476.339844 512.851562 Z M 476.339844 436.195312 C 456.136719 436.195312 439.757812 452.964844 439.757812 473.652344 C 439.757812 494.339844 456.136719 511.109375 476.339844 511.109375 C 496.546875 511.109375 512.921875 494.339844 512.921875 473.652344 C 512.902344 452.976562 496.535156 436.21875 476.339844 436.195312 Z M 476.339844 436.195312 "></path><path style=" stroke:none;fill-rule:nonzero;fill:rgb(80%,80%,80%);fill-opacity:1;" d="M 365.746094 396.128906 C 344.601562 396.128906 327.460938 378.578125 327.460938 356.929688 C 327.460938 335.28125 344.601562 317.734375 365.746094 317.734375 C 386.886719 317.734375 404.027344 335.28125 404.027344 356.929688 C 404.003906 378.570312 386.878906 396.105469 365.746094 396.128906 Z M 365.746094 319.476562 C 345.539062 319.476562 329.164062 336.246094 329.164062 356.929688 C 329.164062 377.617188 345.539062 394.386719 365.746094 394.386719 C 385.949219 394.386719 402.328125 377.617188 402.328125 356.929688 C 402.304688 336.253906 385.9375 319.5 365.746094 319.476562 Z M 365.746094 319.476562 "></path><path style=" stroke:none;fill-rule:nonzero;fill:rgb(80%,80%,80%);fill-opacity:1;" d="M 468.683594 279.40625 C 447.542969 279.40625 430.402344 261.855469 430.402344 240.207031 C 430.402344 218.558594 447.542969 201.011719 468.683594 201.011719 C 489.828125 201.011719 506.96875 218.558594 506.96875 240.207031 C 506.945312 261.847656 489.816406 279.382812 468.683594 279.40625 Z M 468.683594 202.753906 C 448.480469 202.753906 432.101562 219.523438 432.101562 240.207031 C 432.101562 260.894531 448.480469 277.664062 468.683594 277.664062 C 488.886719 277.664062 505.265625 260.894531 505.265625 240.207031 C 505.242188 219.53125 488.878906 202.777344 468.683594 202.753906 Z M 468.683594 202.753906 "></path><path style=" stroke:none;fill-rule:nonzero;fill:rgb(80%,80%,80%);fill-opacity:1;" d="M 366.59375 160 C 345.453125 160 328.3125 142.449219 328.3125 120.800781 C 328.3125 99.152344 345.453125 81.601562 366.59375 81.601562 C 387.738281 81.601562 404.878906 99.152344 404.878906 120.800781 C 404.855469 142.4375 387.726562 159.972656 366.59375 160 Z M 366.59375 83.34375 C 346.390625 83.34375 330.011719 100.113281 330.011719 120.800781 C 330.011719 141.488281 346.390625 158.257812 366.59375 158.257812 C 386.796875 158.257812 403.175781 141.488281 403.175781 120.800781 C 403.152344 100.125 386.789062 83.367188 366.59375 83.34375 Z M 366.59375 83.34375 "></path><path style=" stroke:none;fill-rule:nonzero;fill:rgb(62.745098%,38.039216%,41.568627%);fill-opacity:1;" d="M 126.335938 425.582031 C 124.222656 423.929688 122.890625 421.433594 122.679688 418.71875 C 122.65625 418.40625 122.648438 418.089844 122.65625 417.777344 L 83.039062 390.457031 C 80.375 388.601562 79.222656 385.175781 80.199219 382.035156 L 99.136719 333.867188 C 100.832031 329.550781 105.617188 327.453125 109.839844 329.171875 C 114.0625 330.894531 116.132812 335.785156 114.46875 340.117188 L 99.179688 379.914062 L 130.03125 408.601562 C 130.4375 408.507812 130.851562 408.441406 131.265625 408.40625 C 136.210938 408.003906 140.605469 411.625 141.28125 416.660156 C 141.953125 421.691406 138.675781 426.390625 133.804688 427.363281 C 133.203125 427.484375 132.589844 427.542969 131.976562 427.542969 C 129.9375 427.546875 127.953125 426.855469 126.335938 425.582031 Z M 126.335938 425.582031 "></path><path style=" stroke:none;fill-rule:nonzero;fill:rgb(42.352941%,38.823529%,100%);fill-opacity:1;" d="M 83.054688 362.230469 C 82.585938 361.109375 82.617188 359.832031 83.140625 358.738281 L 92.179688 339.820312 C 94.078125 333.699219 100.457031 330.304688 106.441406 332.234375 C 112.425781 334.160156 115.757812 340.683594 113.890625 346.816406 L 110.59375 367.667969 C 110.402344 368.875 109.707031 369.933594 108.691406 370.574219 C 107.679688 371.210938 106.441406 371.367188 105.304688 370.996094 L 85.582031 364.578125 C 84.445312 364.210938 83.523438 363.351562 83.054688 362.230469 Z M 83.054688 362.230469 "></path><path style=" stroke:none;fill-rule:nonzero;fill:rgb(62.745098%,38.039216%,41.568627%);fill-opacity:1;" d="M 145.398438 595.761719 L 155.828125 595.761719 L 160.792969 554.570312 L 145.398438 554.570312 Z M 145.398438 595.761719 "></path><path style=" stroke:none;fill-rule:nonzero;fill:rgb(18.431373%,18.039216%,25.490196%);fill-opacity:1;" d="M 142.738281 592.273438 L 163.28125 592.273438 C 170.507812 592.273438 176.371094 598.273438 176.371094 605.675781 L 176.371094 606.113281 L 142.738281 606.113281 Z M 142.738281 592.273438 "></path><path style=" stroke:none;fill-rule:nonzero;fill:rgb(62.745098%,38.039216%,41.568627%);fill-opacity:1;" d="M 43.410156 588.195312 L 53.511719 590.851562 L 68.332031 552.222656 L 53.421875 548.300781 Z M 43.410156 588.195312 "></path><path style=" stroke:none;fill-rule:nonzero;fill:rgb(18.431373%,18.039216%,25.490196%);fill-opacity:1;" d="M 41.679688 584.140625 L 61.574219 589.375 C 68.578125 591.21875 72.792969 598.523438 70.996094 605.691406 L 70.886719 606.113281 L 38.316406 597.542969 Z M 41.679688 584.140625 "></path><path style=" stroke:none;fill-rule:nonzero;fill:rgb(62.745098%,38.039216%,41.568627%);fill-opacity:1;" d="M 137.460938 291.789062 C 137.460938 303.605469 128.105469 313.183594 116.566406 313.183594 C 105.023438 313.183594 95.667969 303.605469 95.667969 291.789062 C 95.667969 279.972656 105.023438 270.394531 116.566406 270.394531 C 128.105469 270.394531 137.460938 279.972656 137.460938 291.789062 Z M 137.460938 291.789062 "></path><path style=" stroke:none;fill-rule:nonzero;fill:rgb(42.352941%,38.823529%,100%);fill-opacity:1;" d="M 105.996094 380.777344 C 101.023438 375.535156 96.804688 369.601562 93.460938 363.152344 C 89.863281 355.996094 89.386719 347.621094 92.148438 340.089844 C 94.96875 332.386719 100.839844 326.265625 108.304688 323.238281 C 121.730469 317.660156 137.089844 323.5 143.707031 336.691406 C 148.9375 347.167969 150.984375 357.410156 149.796875 367.136719 C 147.527344 385.730469 146.199219 395.339844 145.847656 395.699219 L 145.730469 395.820312 L 106.859375 397.589844 Z M 105.996094 380.777344 "></path><path style=" stroke:none;fill-rule:nonzero;fill:rgb(18.431373%,18.039216%,25.490196%);fill-opacity:1;" d="M 108.304688 392.445312 L 143.089844 390.671875 C 144.914062 390.578125 146.484375 391.976562 146.648438 393.839844 L 162.648438 577.488281 C 162.734375 578.476562 162.40625 579.453125 161.746094 580.175781 C 161.085938 580.902344 160.15625 581.300781 159.1875 581.28125 L 145.597656 580.984375 C 144.0625 580.953125 142.738281 579.867188 142.367188 578.339844 L 116.40625 471.234375 C 116.058594 469.796875 114.863281 468.742188 113.421875 468.605469 C 111.984375 468.464844 110.617188 469.269531 110.011719 470.617188 L 60.8125 580.019531 C 60.125 581.554688 58.460938 582.359375 56.863281 581.933594 L 43.1875 578.28125 C 41.429688 577.8125 40.339844 576.011719 40.714844 574.191406 C 45.214844 552.445312 72.167969 427.894531 106.105469 393.417969 C 106.695312 392.828125 107.480469 392.480469 108.304688 392.445312 Z M 108.304688 392.445312 "></path><path style=" stroke:none;fill-rule:nonzero;fill:rgb(62.745098%,38.039216%,41.568627%);fill-opacity:1;" d="M 174.175781 413.0625 C 171.632812 412.261719 169.542969 410.386719 168.425781 407.914062 C 168.300781 407.628906 168.1875 407.335938 168.089844 407.039062 L 121.699219 395.398438 C 118.574219 394.597656 116.332031 391.789062 116.195312 388.496094 L 117.730469 336.597656 C 117.867188 331.949219 121.652344 328.285156 126.191406 328.410156 C 130.734375 328.53125 134.328125 332.390625 134.226562 337.042969 L 133.292969 379.796875 L 171.917969 395.824219 C 172.269531 395.589844 172.632812 395.382812 173.011719 395.203125 C 176.804688 393.402344 181.304688 394.394531 184.039062 397.632812 C 186.773438 400.871094 187.078125 405.570312 184.789062 409.152344 C 182.5 412.734375 178.167969 414.332031 174.175781 413.0625 Z M 174.175781 413.0625 "></path><path style=" stroke:none;fill-rule:nonzero;fill:rgb(42.352941%,38.823529%,100%);fill-opacity:1;" d="M 112.78125 362.457031 C 111.972656 361.5625 111.582031 360.351562 111.714844 359.140625 L 114.015625 338.210938 C 113.792969 331.792969 118.683594 326.402344 124.953125 326.15625 C 131.222656 325.910156 136.503906 330.90625 136.757812 337.320312 L 140.5 358.097656 C 140.71875 359.296875 140.414062 360.535156 139.667969 361.484375 C 138.921875 362.4375 137.808594 363.007812 136.617188 363.050781 L 115.933594 363.800781 C 114.742188 363.84375 113.589844 363.351562 112.78125 362.457031 Z M 112.78125 362.457031 "></path><path style=" stroke:none;fill-rule:nonzero;fill:rgb(18.431373%,18.039216%,25.490196%);fill-opacity:1;" d="M 86.625 320.035156 L 88.808594 312.808594 L 90.300781 320.917969 L 102.5625 320.585938 L 102.503906 312.589844 L 107.167969 320.480469 L 118.277344 317.964844 C 115.902344 314.726562 113.503906 311.4375 111.984375 307.621094 C 110.464844 303.800781 109.914062 299.324219 111.332031 295.460938 C 114.839844 285.90625 128.136719 288.582031 135.40625 288.5 C 137.53125 288.476562 139.925781 288.320312 141.3125 286.542969 C 142.359375 285.207031 142.53125 283.292969 142.480469 281.523438 C 142.207031 272.417969 136.867188 263.730469 129.316406 260.109375 C 125.621094 258.367188 121.5 257.796875 117.488281 258.46875 C 115.394531 258.808594 113.359375 259.464844 111.453125 260.414062 C 109.753906 261.265625 107.96875 263.289062 106.140625 263.234375 C 104.601562 263.1875 102.566406 261.546875 100.894531 261.269531 C 98.878906 260.949219 96.824219 261.023438 94.835938 261.484375 C 90.839844 262.394531 87.234375 264.605469 84.5625 267.777344 C 78.878906 274.539062 77.1875 284.503906 78.179688 293.675781 C 79.171875 302.847656 82.519531 311.476562 85.835938 319.953125 "></path><path style=" stroke:none;fill-rule:nonzero;fill:rgb(90.196078%,90.196078%,90.196078%);fill-opacity:1;" d="M 683.148438 607.722656 L 0.851562 607.722656 C 0.382812 607.722656 0 607.332031 0 606.851562 C 0 606.371094 0.382812 605.980469 0.851562 605.980469 L 683.148438 605.980469 C 683.617188 605.980469 684 606.371094 684 606.851562 C 684 607.332031 683.617188 607.722656 683.148438 607.722656 Z M 683.148438 607.722656 "></path><path style=" stroke:none;fill-rule:nonzero;fill:rgb(94.901961%,94.901961%,94.901961%);fill-opacity:1;" d="M 671.640625 596.929688 C 674.234375 594.773438 676.128906 591.855469 677.0625 588.570312 C 677.753906 585.242188 676.371094 581.339844 673.277344 580.050781 C 669.800781 578.675781 666.085938 581.148438 663.277344 583.636719 C 660.464844 586.125 657.230469 588.972656 653.546875 588.4375 C 657.386719 584.855469 659.109375 579.46875 658.078125 574.25 C 657.925781 573.183594 657.488281 572.183594 656.808594 571.359375 C 654.886719 569.246094 651.382812 570.160156 649.066406 571.820312 C 641.722656 577.113281 639.675781 587.324219 639.644531 596.523438 C 638.898438 593.195312 639.519531 589.742188 639.503906 586.398438 C 639.492188 583.058594 638.574219 579.167969 635.777344 577.40625 C 634.042969 576.449219 632.09375 575.976562 630.125 576.03125 C 626.820312 575.914062 623.148438 576.246094 620.886719 578.71875 C 618.0625 581.785156 618.8125 586.949219 621.253906 590.289062 C 623.699219 593.628906 627.398438 595.785156 630.804688 598.128906 C 633.546875 599.792969 635.882812 602.074219 637.640625 604.796875 C 637.847656 605.171875 638.019531 605.570312 638.148438 605.980469 L 658.84375 605.980469 C 663.488281 603.570312 667.792969 600.523438 671.640625 596.929688 Z M 671.640625 596.929688 "></path><path style=" stroke:none;fill-rule:nonzero;fill:rgb(24.705882%,23.921569%,33.72549%);fill-opacity:1;" d="M 456.34375 263.234375 C 455.5625 263.234375 454.835938 262.824219 454.414062 262.152344 C 453.988281 261.480469 453.925781 260.636719 454.242188 259.902344 L 456.90625 253.824219 C 449.308594 246.914062 448.011719 235.261719 453.890625 226.777344 C 459.769531 218.296875 470.941406 215.707031 479.816406 220.765625 C 488.695312 225.828125 492.425781 236.917969 488.476562 246.503906 C 484.53125 256.085938 474.167969 261.089844 464.433594 258.117188 L 457.640625 262.824219 C 457.257812 263.09375 456.808594 263.234375 456.34375 263.234375 Z M 470.082031 221.191406 C 462.828125 221.1875 456.363281 225.882812 453.972656 232.894531 C 451.578125 239.90625 453.78125 247.699219 459.457031 252.320312 L 460.296875 253.003906 L 457.429688 259.546875 L 464.003906 254.992188 L 464.652344 255.214844 C 471.058594 257.417969 478.132812 255.542969 482.6875 250.429688 C 487.242188 245.320312 488.421875 237.933594 485.691406 231.605469 C 482.960938 225.273438 476.839844 221.191406 470.082031 221.191406 Z M 470.082031 221.191406 "></path><path style=" stroke:none;fill-rule:nonzero;fill:rgb(24.705882%,23.921569%,33.72549%);fill-opacity:1;" d="M 472.847656 237.71875 C 472.847656 239.285156 471.609375 240.550781 470.082031 240.550781 C 468.550781 240.550781 467.3125 239.285156 467.3125 237.71875 C 467.3125 236.15625 468.550781 234.886719 470.082031 234.886719 C 471.609375 234.886719 472.847656 236.15625 472.847656 237.71875 Z M 472.847656 237.71875 "></path><path style=" stroke:none;fill-rule:nonzero;fill:rgb(24.705882%,23.921569%,33.72549%);fill-opacity:1;" d="M 465.007812 237.71875 C 465.007812 239.285156 463.769531 240.550781 462.242188 240.550781 C 460.710938 240.550781 459.472656 239.285156 459.472656 237.71875 C 459.472656 236.15625 460.710938 234.886719 462.242188 234.886719 C 463.769531 234.886719 465.007812 236.15625 465.007812 237.71875 Z M 465.007812 237.71875 "></path><path style=" stroke:none;fill-rule:nonzero;fill:rgb(24.705882%,23.921569%,33.72549%);fill-opacity:1;" d="M 480.6875 237.71875 C 480.6875 239.285156 479.449219 240.550781 477.921875 240.550781 C 476.394531 240.550781 475.152344 239.285156 475.152344 237.71875 C 475.152344 236.15625 476.394531 234.886719 477.921875 234.886719 C 479.449219 234.886719 480.6875 236.15625 480.6875 237.71875 Z M 480.6875 237.71875 "></path></g></svg>