<svg xmlns="http://www.w3.org/2000/svg" xmlns:xlink="http://www.w3.org/1999/xlink" width="684px" height="608px" viewBox="0 0 684 608"><defs><filter id="alpha" filterUnits="objectBoundingBox" x="0%" y="0%" width="100%" height="100%"></filter><mask id="mask0"><g filter="url(#alpha)"><rect x="0" y="0" width="684" height="608" style="fill:rgb(0%,0%,0%);fill-opacity:0.2;stroke:none;"></rect></g></mask><clipPath id="clip1"><rect x="0" y="0" width="684" height="608"></rect></clipPath><g id="surface5" clip-path="url(#clip1)"><path style=" stroke:none;fill-rule:nonzero;fill:rgb(0%,0%,0%);fill-opacity:1;" d="M 358.277344 559.339844 C 358.273438 520 390.167969 488.105469 429.507812 488.109375 L 429.878906 488.109375 C 429.699219 487.671875 429.519531 487.230469 429.339844 486.789062 C 428.890625 485.710938 428.4375 484.628906 427.96875 483.558594 L 358.277344 483.558594 L 358.277344 394.269531 L 362.507812 394.269531 C 362.007812 393.820312 361.5 393.378906 360.988281 392.949219 C 358.699219 391 356.375 389.09375 354.019531 387.230469 L 353.75 387.019531 L 353.75 389.71875 L 266.238281 389.71875 L 266.238281 342.75 C 264.828125 342.359375 263.410156 341.980469 261.980469 341.621094 C 261.890625 341.601562 261.800781 341.570312 261.710938 341.550781 L 261.710938 389.71875 L 217.25 389.71875 L 217.25 394.269531 L 261.710938 394.269531 L 261.710938 483.558594 L 217.25 483.558594 L 217.25 488.109375 L 261.710938 488.109375 L 261.710938 559.339844 L 217.578125 559.339844 C 217.769531 560.867188 218.054688 562.378906 218.429688 563.871094 L 261.710938 563.871094 L 261.710938 593.769531 L 266.238281 593.769531 L 266.238281 563.871094 L 353.75 563.871094 L 353.75 593.769531 L 358.277344 593.769531 L 358.277344 563.871094 L 434.628906 563.871094 L 434.628906 559.339844 Z M 353.75 559.339844 L 266.238281 559.339844 L 266.238281 488.109375 L 353.75 488.109375 Z M 353.75 483.558594 L 266.238281 483.558594 L 266.238281 481.78125 C 266.238281 433.449219 305.417969 394.269531 353.75 394.269531 Z M 353.75 483.558594 "></path></g></defs><g id="surface1"><path style=" stroke:none;fill-rule:nonzero;fill:rgb(94.901961%,94.901961%,94.901961%);fill-opacity:1;" d="M 530.664062 537.121094 L 539.652344 503.753906 C 557.128906 498.871094 575.535156 498.332031 593.269531 502.179688 C 564.460938 516.699219 558.972656 555.800781 536.488281 578.933594 C 522.167969 593.441406 502.03125 600.648438 481.757812 598.523438 L 458.578125 606.484375 C 459.929688 573.636719 475.597656 543.03125 501.449219 522.726562 C 508.671875 517.167969 516.566406 512.542969 524.945312 508.957031 C 526.96875 522.925781 530.664062 537.121094 530.664062 537.121094 Z M 530.664062 537.121094 "></path><path style=" stroke:none;fill-rule:nonzero;fill:rgb(94.901961%,94.901961%,94.901961%);fill-opacity:1;" d="M 110.632812 489.679688 L 95.464844 433.363281 C 65.964844 425.125 34.902344 424.214844 4.96875 430.707031 C 53.59375 455.210938 62.855469 521.207031 100.808594 560.25 C 124.972656 584.734375 158.960938 596.902344 193.175781 593.3125 L 232.292969 606.746094 C 230.015625 551.3125 203.574219 499.652344 159.941406 465.382812 C 147.75 456.003906 134.429688 448.195312 120.289062 442.144531 C 116.871094 465.722656 110.632812 489.679688 110.632812 489.679688 Z M 110.632812 489.679688 "></path><path style=" stroke:none;fill-rule:nonzero;fill:rgb(24.705882%,23.921569%,33.72549%);fill-opacity:1;" d="M 502.234375 144.375 L 502.234375 52.925781 C 502.234375 23.695312 478.539062 0 449.308594 0 L 255.566406 0 C 226.335938 0 202.640625 23.695312 202.640625 52.925781 L 202.640625 554.609375 C 202.640625 583.839844 226.335938 607.535156 255.566406 607.535156 L 449.308594 607.535156 C 478.539062 607.535156 502.234375 583.839844 502.234375 554.609375 L 502.234375 209.464844 C 504.078125 209.464844 505.574219 207.972656 505.574219 206.128906 L 505.574219 147.710938 C 505.574219 145.867188 504.078125 144.375 502.234375 144.375 Z M 502.234375 144.375 "></path><path style=" stroke:none;fill-rule:nonzero;fill:rgb(100%,100%,100%);fill-opacity:1;" d="M 490.972656 53.289062 L 490.972656 554.25 C 490.976562 575.90625 473.539062 593.523438 451.882812 593.75 C 451.738281 593.765625 451.59375 593.773438 451.449219 593.769531 L 256.765625 593.769531 C 234.941406 593.765625 217.246094 576.074219 217.246094 554.25 L 217.246094 53.289062 C 217.246094 31.464844 234.941406 13.769531 256.765625 13.769531 L 280.390625 13.769531 C 278.035156 19.5625 278.710938 26.148438 282.199219 31.335938 C 285.6875 36.527344 291.527344 39.644531 297.78125 39.648438 L 408.777344 39.648438 C 415.023438 39.628906 420.855469 36.511719 424.339844 31.324219 C 427.820312 26.136719 428.5 19.558594 426.148438 13.769531 L 451.449219 13.769531 C 473.277344 13.769531 490.96875 31.464844 490.972656 53.289062 Z M 490.972656 53.289062 "></path><path style=" stroke:none;fill-rule:nonzero;fill:rgb(24.705882%,23.921569%,33.72549%);fill-opacity:1;" d="M 203.710938 195.53125 C 201.222656 195.527344 199.207031 193.511719 199.207031 191.027344 L 199.207031 160.390625 C 199.210938 157.90625 201.226562 155.890625 203.710938 155.890625 C 206.195312 155.890625 208.214844 157.90625 208.214844 160.390625 L 208.214844 191.027344 C 208.214844 193.511719 206.199219 195.527344 203.710938 195.53125 Z M 203.710938 195.53125 "></path><path style=" stroke:none;fill-rule:nonzero;fill:rgb(24.705882%,23.921569%,33.72549%);fill-opacity:1;" d="M 202.808594 136.0625 C 200.324219 136.058594 198.308594 134.042969 198.304688 131.554688 L 198.304688 100.917969 C 198.308594 98.433594 200.324219 96.421875 202.808594 96.421875 C 205.296875 96.421875 207.3125 98.433594 207.316406 100.917969 L 207.316406 131.554688 C 207.3125 134.042969 205.296875 136.058594 202.808594 136.0625 Z M 202.808594 136.0625 "></path><path style=" stroke:none;fill-rule:nonzero;fill:rgb(100%,100%,100%);fill-opacity:1;" d="M 322.652344 18.921875 C 322.65625 16.433594 324.671875 14.421875 327.15625 14.417969 L 357.792969 14.417969 C 360.28125 14.421875 362.292969 16.4375 362.292969 18.921875 C 362.292969 21.40625 360.28125 23.425781 357.792969 23.429688 L 327.15625 23.429688 C 324.671875 23.425781 322.65625 21.410156 322.652344 18.921875 Z M 322.652344 18.921875 "></path><path style=" stroke:none;fill-rule:nonzero;fill:rgb(24.705882%,23.921569%,33.72549%);fill-opacity:1;" d="M 203.710938 247.792969 C 201.222656 247.789062 199.207031 245.777344 199.207031 243.289062 L 199.207031 212.652344 C 199.210938 210.167969 201.226562 208.152344 203.710938 208.152344 C 206.195312 208.152344 208.214844 210.167969 208.214844 212.652344 L 208.214844 243.289062 C 208.214844 245.777344 206.199219 247.789062 203.710938 247.792969 Z M 203.710938 247.792969 "></path><path style=" stroke:none;fill-rule:nonzero;fill:rgb(100%,100%,100%);fill-opacity:1;" d="M 379.417969 18.921875 C 379.417969 21.410156 377.402344 23.429688 374.914062 23.429688 C 372.425781 23.429688 370.410156 21.410156 370.410156 18.921875 C 370.410156 16.433594 372.425781 14.417969 374.914062 14.417969 C 377.402344 14.417969 379.417969 16.433594 379.417969 18.921875 Z M 379.417969 18.921875 "></path><path style=" stroke:none;fill-rule:nonzero;fill:rgb(61.960784%,38.039216%,41.568627%);fill-opacity:1;" d="M 332.957031 574.339844 L 345.082031 574.339844 L 350.851562 527.570312 L 332.953125 527.570312 Z M 332.957031 574.339844 "></path><path style=" stroke:none;fill-rule:nonzero;fill:rgb(18.431373%,18.039216%,25.490196%);fill-opacity:1;" d="M 329.863281 570.382812 L 333.277344 570.382812 L 346.601562 564.960938 L 353.742188 570.378906 C 362.148438 570.378906 368.960938 577.195312 368.960938 585.597656 L 368.960938 586.09375 L 329.863281 586.09375 Z M 329.863281 570.382812 "></path><path style=" stroke:none;fill-rule:nonzero;fill:rgb(61.960784%,38.039216%,41.568627%);fill-opacity:1;" d="M 389.289062 574.339844 L 401.414062 574.339844 L 407.183594 527.570312 L 389.289062 527.570312 Z M 389.289062 574.339844 "></path><path style=" stroke:none;fill-rule:nonzero;fill:rgb(18.431373%,18.039216%,25.490196%);fill-opacity:1;" d="M 386.195312 570.382812 L 389.609375 570.382812 L 402.933594 564.960938 L 410.078125 570.378906 C 418.480469 570.378906 425.296875 577.195312 425.296875 585.597656 L 425.296875 586.09375 L 386.199219 586.09375 Z M 386.195312 570.382812 "></path><path style=" stroke:none;fill-rule:nonzero;fill:rgb(18.431373%,18.039216%,25.490196%);fill-opacity:1;" d="M 398.984375 318.386719 L 303.710938 320.871094 L 305.367188 367.265625 C 305.367188 367.265625 303.710938 379.691406 307.027344 383.003906 C 310.339844 386.320312 311.996094 386.320312 310.339844 392.117188 C 308.683594 397.917969 317.4375 407.390625 316.375 408.453125 C 315.308594 409.515625 312.824219 415.316406 312.824219 415.316406 L 321.109375 462.535156 C 321.109375 462.535156 326.910156 544.550781 328.566406 546.207031 C 330.222656 547.867188 331.878906 546.207031 330.222656 550.351562 C 328.566406 554.492188 326.910156 552.835938 328.566406 554.492188 C 330.03125 556.074219 331.414062 557.734375 332.707031 559.464844 L 352.738281 559.464844 C 352.738281 559.464844 354.246094 551.179688 354.246094 550.351562 C 354.246094 549.523438 355.902344 544.550781 355.902344 543.722656 C 355.902344 542.894531 354.4375 541.429688 354.4375 541.429688 C 353.933594 539.746094 353.589844 538.015625 353.417969 536.265625 C 353.417969 534.609375 348.449219 470.820312 348.449219 470.820312 L 358.390625 387.976562 L 382.414062 469.164062 C 382.414062 469.164062 382.414062 540.410156 384.070312 542.066406 C 385.726562 543.722656 385.726562 542.894531 384.898438 546.207031 C 384.070312 549.523438 380.757812 548.695312 383.242188 551.179688 C 385.726562 553.664062 386.554688 549.523438 385.726562 553.664062 L 384.898438 557.808594 L 409.753906 558.164062 C 409.753906 558.164062 413.066406 551.179688 411.410156 548.695312 C 409.753906 546.207031 409.851562 546.886719 411.875 542.820312 C 413.894531 538.753906 414.722656 537.925781 413.894531 537.097656 C 413.066406 536.265625 413.066406 531.859375 413.066406 531.859375 L 408.925781 452.59375 C 408.925781 452.59375 408.09375 368.921875 408.09375 366.4375 C 408.03125 365.160156 408.269531 363.882812 408.785156 362.710938 L 408.785156 359.335938 L 405.609375 347.382812 Z M 398.984375 318.386719 "></path><path style=" stroke:none;fill-rule:nonzero;fill:rgb(61.960784%,38.039216%,41.568627%);fill-opacity:1;" d="M 350.128906 126.320312 C 350.128906 140.503906 338.628906 152 324.445312 152 C 310.261719 152 298.765625 140.503906 298.765625 126.320312 C 298.765625 112.136719 310.261719 100.636719 324.445312 100.636719 C 338.628906 100.636719 350.128906 112.136719 350.128906 126.320312 Z M 350.128906 126.320312 "></path><path style=" stroke:none;fill-rule:nonzero;fill:rgb(18.431373%,18.039216%,25.490196%);fill-opacity:1;" d="M 312.777344 143.789062 L 311.738281 142.957031 C 311.71875 142.941406 309.746094 141.375 307.863281 141.648438 C 306.996094 141.792969 306.230469 142.304688 305.761719 143.046875 C 305.492188 143.464844 304.996094 143.675781 304.511719 143.582031 C 302.066406 143.195312 297.65625 135.964844 295.433594 128.703125 C 294.0625 124.226562 292.445312 116.109375 296.898438 111.785156 C 297.242188 109.828125 300.792969 92.179688 316.398438 91.6875 C 332.457031 91.179688 343.148438 94.421875 345.726562 100.566406 C 346.167969 101.613281 346.609375 102.84375 347.042969 104.226562 C 347.496094 105.601562 347.117188 107.113281 346.070312 108.117188 C 345.125 109.035156 343.78125 109.417969 342.496094 109.136719 C 342.417969 109.925781 342.210938 110.695312 341.882812 111.417969 C 340.480469 114.460938 336.949219 116.445312 332.886719 116.472656 C 330.480469 116.4375 328.097656 115.980469 325.851562 115.117188 L 332.347656 120.117188 L 316.820312 118.183594 L 321.90625 120.902344 L 320.890625 121.386719 C 314.386719 124.269531 310.644531 131.175781 311.785156 138.195312 Z M 312.777344 143.789062 "></path><path style=" stroke:none;fill-rule:nonzero;fill:rgb(90.196078%,90.196078%,90.196078%);fill-opacity:1;" d="M 394.304688 306.113281 C 397.917969 299.871094 394.476562 290.855469 394.476562 290.855469 C 394.476562 290.855469 403.824219 277.035156 401.53125 271.136719 L 390.519531 185.832031 C 390.519531 185.832031 387.082031 176.65625 379.050781 172.066406 C 376.847656 170.808594 365.285156 171.304688 362.75 171.324219 L 354.511719 167.804688 C 354.035156 169.550781 345.050781 151.339844 345.003906 153.148438 C 339.269531 153.148438 335.574219 153.941406 326.652344 155.445312 C 311.15625 158.054688 318.964844 172.054688 319.945312 173.707031 C 319.550781 173.734375 319.160156 173.789062 318.773438 173.871094 C 316.753906 174.25 309.871094 180.203125 309.871094 180.203125 L 297.5625 191.132812 C 279.015625 205.6875 283.167969 228.402344 283.167969 228.402344 L 310.214844 255.621094 L 298.367188 310.230469 C 298.367188 310.230469 303.402344 318.339844 300.796875 321.976562 C 298.195312 325.609375 323.738281 324.566406 323.738281 324.566406 C 341.367188 332.425781 403.480469 325.78125 403.480469 325.78125 C 402.621094 323.535156 394.304688 306.113281 394.304688 306.113281 Z M 394.304688 306.113281 "></path><path style=" stroke:none;fill-rule:nonzero;fill:rgb(79.215686%,79.215686%,79.215686%);fill-opacity:1;" d="M 1.191406 607.632812 L 682.574219 607.632812 C 683.230469 607.628906 683.761719 607.097656 683.761719 606.441406 C 683.761719 605.785156 683.230469 605.25 682.574219 605.25 L 1.191406 605.25 C 0.535156 605.25 0.00390625 605.785156 0.00390625 606.441406 C 0.00390625 607.097656 0.535156 607.628906 1.191406 607.632812 Z M 1.191406 607.632812 "></path><path style=" stroke:none;fill-rule:nonzero;fill:rgb(24.705882%,23.921569%,33.72549%);fill-opacity:1;" d="M 448.109375 581.539062 C 448.109375 586.730469 447.945312 591.875 447.621094 596.980469 C 447.476562 596.996094 447.332031 597.003906 447.1875 597 L 252.507812 597 C 234.386719 597 218.585938 584.675781 214.167969 567.101562 C 213.792969 565.609375 213.507812 564.097656 213.320312 562.570312 C 213.097656 560.882812 212.988281 559.183594 212.988281 557.480469 L 212.988281 334.230469 C 227.96875 334.972656 242.851562 337.074219 257.449219 340.511719 C 258.878906 340.839844 260.300781 341.191406 261.710938 341.550781 C 261.800781 341.570312 261.890625 341.601562 261.980469 341.621094 C 263.410156 341.980469 264.828125 342.359375 266.238281 342.75 C 296.335938 351.015625 324.585938 364.925781 349.488281 383.738281 C 350.917969 384.808594 352.339844 385.910156 353.75 387.019531 L 354.019531 387.230469 C 356.378906 389.089844 358.703125 390.996094 360.988281 392.949219 C 361.5 393.378906 362.007812 393.820312 362.507812 394.269531 C 363.738281 395.328125 364.96875 396.410156 366.167969 397.5 C 392.726562 421.402344 413.804688 450.757812 427.96875 483.558594 C 428.4375 484.628906 428.890625 485.710938 429.339844 486.789062 C 429.519531 487.230469 429.699219 487.671875 429.878906 488.109375 C 430.050781 488.511719 430.210938 488.910156 430.371094 489.308594 C 442.125 518.636719 448.148438 549.945312 448.109375 581.539062 Z M 448.109375 581.539062 "></path><use xlink:href="#surface5" mask="url(#mask0)"></use><path style=" stroke:none;fill-rule:nonzero;fill:rgb(61.960784%,38.039216%,41.568627%);fill-opacity:1;" d="M 305.683594 366.878906 C 303.863281 364.835938 303.042969 362.089844 303.441406 359.378906 C 303.839844 356.671875 305.417969 354.277344 307.75 352.84375 L 296.082031 306.976562 L 312.035156 313.089844 L 320.898438 356.402344 C 323.097656 360.574219 321.828125 365.726562 317.945312 368.398438 C 314.0625 371.070312 308.796875 370.417969 305.683594 366.878906 Z M 305.683594 366.878906 "></path><path style=" stroke:none;fill-rule:nonzero;fill:rgb(90.196078%,90.196078%,90.196078%);fill-opacity:1;" d="M 284.210938 219.679688 L 282.769531 237.996094 C 282.769531 237.996094 280.980469 258.117188 281.449219 261.839844 C 281.917969 265.558594 282.789062 288.28125 282.789062 288.28125 L 297.976562 318.324219 L 315.179688 313.734375 L 314.152344 299.640625 L 315.179688 312.585938 L 317.476562 301.117188 L 311.742188 281.617188 L 315.179688 274.734375 L 313.445312 251.632812 Z M 284.210938 219.679688 "></path><path style=" stroke:none;fill-rule:nonzero;fill:rgb(42.352941%,38.823529%,100%);fill-opacity:1;" d="M 679.859375 343.265625 C 677.832031 340.863281 674.960938 339.332031 671.835938 338.992188 C 671.390625 338.945312 670.945312 338.921875 670.496094 338.921875 L 439.890625 338.703125 C 436.515625 338.691406 433.289062 340.078125 430.972656 342.53125 C 428.761719 344.929688 427.558594 348.085938 427.601562 351.34375 L 427.566406 388.804688 C 427.546875 395.59375 429.015625 402.300781 431.875 408.460938 C 430.28125 414.5 427.617188 420.207031 424.007812 425.3125 C 421.71875 428.609375 421.519531 432.929688 423.496094 436.425781 C 425.472656 439.917969 429.277344 441.972656 433.285156 441.710938 C 435.714844 441.5625 438.136719 441.285156 440.539062 440.886719 C 447.53125 439.789062 454.203125 437.191406 460.09375 433.269531 C 464.625 434.695312 469.347656 435.421875 474.097656 435.425781 L 636.25 435.578125 C 648.605469 435.621094 660.460938 430.710938 669.160156 421.941406 C 677.941406 412.980469 682.816406 400.914062 682.730469 388.371094 L 682.761719 351.597656 C 682.8125 348.566406 681.785156 345.609375 679.859375 343.265625 Z M 679.859375 343.265625 "></path><path style=" stroke:none;fill-rule:nonzero;fill:rgb(100%,100%,100%);fill-opacity:1;" d="M 619.605469 372.699219 L 490.71875 372.578125 C 489.167969 372.578125 487.914062 371.320312 487.914062 369.769531 C 487.917969 368.222656 489.171875 366.96875 490.722656 366.96875 L 619.613281 367.089844 C 621.160156 367.089844 622.414062 368.347656 622.414062 369.898438 C 622.410156 371.445312 621.15625 372.699219 619.605469 372.699219 Z M 619.605469 372.699219 "></path><path style=" stroke:none;fill-rule:nonzero;fill:rgb(100%,100%,100%);fill-opacity:1;" d="M 619.589844 389.910156 L 490.699219 389.792969 C 489.152344 389.789062 487.898438 388.535156 487.898438 386.984375 C 487.902344 385.4375 489.15625 384.179688 490.707031 384.183594 L 619.59375 384.304688 C 621.144531 384.304688 622.398438 385.5625 622.398438 387.109375 C 622.394531 388.660156 621.140625 389.914062 619.589844 389.910156 Z M 619.589844 389.910156 "></path><path style=" stroke:none;fill-rule:nonzero;fill:rgb(100%,100%,100%);fill-opacity:1;" d="M 505.707031 407.019531 L 490.683594 407.003906 C 489.136719 407.003906 487.882812 405.746094 487.882812 404.199219 C 487.882812 402.648438 489.140625 401.394531 490.691406 401.394531 L 505.710938 401.410156 C 507.257812 401.414062 508.507812 402.667969 508.507812 404.214844 C 508.507812 405.761719 507.253906 407.015625 505.707031 407.019531 Z M 505.707031 407.019531 "></path><path style=" stroke:none;fill-rule:nonzero;fill:rgb(42.352941%,38.823529%,100%);fill-opacity:1;" d="M 3.199219 198.265625 C 5.226562 195.863281 8.101562 194.332031 11.226562 193.992188 C 11.671875 193.945312 12.117188 193.921875 12.5625 193.921875 L 243.171875 193.703125 C 246.542969 193.691406 249.773438 195.078125 252.089844 197.53125 C 254.296875 199.929688 255.503906 203.085938 255.460938 206.34375 L 255.496094 243.804688 C 255.511719 250.59375 254.042969 257.300781 251.1875 263.460938 C 252.78125 269.5 255.445312 275.207031 259.050781 280.3125 C 261.339844 283.609375 261.539062 287.929688 259.5625 291.425781 C 257.585938 294.917969 253.78125 296.972656 249.773438 296.710938 C 247.34375 296.5625 244.921875 296.285156 242.519531 295.886719 C 235.527344 294.789062 228.859375 292.191406 222.96875 288.269531 C 218.4375 289.695312 213.714844 290.421875 208.964844 290.425781 L 46.808594 290.578125 C 34.457031 290.621094 22.601562 285.710938 13.898438 276.941406 C 5.121094 267.980469 0.242188 255.914062 0.332031 243.371094 L 0.296875 206.597656 C 0.246094 203.566406 1.273438 200.609375 3.199219 198.265625 Z M 3.199219 198.265625 "></path><path style=" stroke:none;fill-rule:nonzero;fill:rgb(100%,100%,100%);fill-opacity:1;" d="M 60.648438 224.898438 C 60.648438 223.347656 61.902344 222.09375 63.449219 222.089844 L 192.335938 221.96875 C 193.886719 221.96875 195.144531 223.222656 195.144531 224.769531 C 195.144531 226.320312 193.890625 227.578125 192.34375 227.578125 L 63.453125 227.699219 C 61.90625 227.699219 60.648438 226.445312 60.648438 224.898438 Z M 60.648438 224.898438 "></path><path style=" stroke:none;fill-rule:nonzero;fill:rgb(100%,100%,100%);fill-opacity:1;" d="M 60.664062 242.109375 C 60.664062 240.5625 61.917969 239.304688 63.464844 239.304688 L 192.355469 239.183594 C 193.902344 239.179688 195.160156 240.4375 195.160156 241.984375 C 195.164062 243.53125 193.90625 244.789062 192.359375 244.792969 L 63.46875 244.910156 C 61.921875 244.910156 60.667969 243.65625 60.664062 242.109375 Z M 60.664062 242.109375 "></path><path style=" stroke:none;fill-rule:nonzero;fill:rgb(100%,100%,100%);fill-opacity:1;" d="M 174.546875 259.214844 C 174.546875 257.667969 175.800781 256.414062 177.351562 256.410156 L 192.371094 256.394531 C 193.917969 256.394531 195.175781 257.648438 195.175781 259.199219 C 195.179688 260.746094 193.925781 262.003906 192.375 262.003906 L 177.355469 262.019531 C 175.808594 262.019531 174.550781 260.765625 174.546875 259.214844 Z M 174.546875 259.214844 "></path><path style=" stroke:none;fill-rule:nonzero;fill:rgb(61.960784%,38.039216%,41.568627%);fill-opacity:1;" d="M 467.671875 111.558594 C 465.070312 112.863281 463.179688 115.25 462.507812 118.082031 C 461.839844 120.910156 462.457031 123.894531 464.195312 126.226562 L 444.585938 155.136719 L 462.738281 155.375 L 478.578125 127.882812 C 482.382812 124.628906 483.15625 119.042969 480.375 114.878906 C 477.59375 110.714844 472.136719 109.289062 467.671875 111.558594 Z M 467.671875 111.558594 "></path><path style=" stroke:none;fill-rule:nonzero;fill:rgb(90.196078%,90.196078%,90.196078%);fill-opacity:1;" d="M 473.898438 138.824219 L 443.691406 194.367188 L 443.421875 194.386719 C 443.203125 194.398438 433.589844 195.035156 421.855469 195.671875 C 419.875 195.78125 418.707031 199.292969 416.640625 199.398438 C 415.21875 199.46875 409.964844 206.070312 408.53125 206.136719 C 395.734375 206.746094 388.398438 212.59375 383.53125 212.136719 C 376.929688 211.589844 368.140625 193.4375 363.347656 188.871094 L 363.234375 188.75 L 363.21875 188.585938 C 362.527344 181.726562 366.691406 175.304688 373.238281 173.136719 C 388.605469 168.132812 404.929688 166.769531 420.914062 169.15625 L 430.007812 170.523438 L 457.605469 133.457031 Z M 473.898438 138.824219 "></path><path style=" stroke:none;fill-rule:nonzero;fill:rgb(42.352941%,38.823529%,100%);fill-opacity:1;" d="M 636.859375 31.265625 C 634.832031 28.863281 631.960938 27.332031 628.835938 26.992188 C 628.390625 26.945312 627.945312 26.921875 627.496094 26.921875 L 396.890625 26.703125 C 393.515625 26.691406 390.289062 28.078125 387.972656 30.53125 C 385.761719 32.929688 384.558594 36.085938 384.601562 39.34375 L 384.566406 76.804688 C 384.546875 83.59375 386.015625 90.300781 388.875 96.460938 C 387.28125 102.5 384.617188 108.207031 381.007812 113.3125 C 378.71875 116.609375 378.519531 120.929688 380.496094 124.425781 C 382.472656 127.917969 386.277344 129.972656 390.285156 129.710938 C 392.714844 129.5625 395.136719 129.285156 397.539062 128.886719 C 404.53125 127.789062 411.203125 125.191406 417.09375 121.269531 C 421.625 122.695312 426.347656 123.421875 431.097656 123.425781 L 593.25 123.578125 C 605.605469 123.621094 617.460938 118.710938 626.160156 109.941406 C 634.941406 100.980469 639.816406 88.914062 639.730469 76.371094 L 639.761719 39.597656 C 639.8125 36.566406 638.785156 33.609375 636.859375 31.265625 Z M 636.859375 31.265625 "></path><path style=" stroke:none;fill-rule:nonzero;fill:rgb(100%,100%,100%);fill-opacity:1;" d="M 576.605469 60.699219 L 447.71875 60.578125 C 446.167969 60.578125 444.914062 59.320312 444.914062 57.769531 C 444.917969 56.222656 446.171875 54.96875 447.722656 54.96875 L 576.613281 55.089844 C 578.160156 55.089844 579.414062 56.347656 579.414062 57.898438 C 579.410156 59.445312 578.15625 60.699219 576.605469 60.699219 Z M 576.605469 60.699219 "></path><path style=" stroke:none;fill-rule:nonzero;fill:rgb(100%,100%,100%);fill-opacity:1;" d="M 576.589844 77.910156 L 447.699219 77.792969 C 446.152344 77.789062 444.898438 76.535156 444.898438 74.984375 C 444.902344 73.4375 446.15625 72.179688 447.707031 72.183594 L 576.59375 72.304688 C 578.144531 72.304688 579.398438 73.5625 579.398438 75.109375 C 579.394531 76.660156 578.140625 77.914062 576.589844 77.910156 Z M 576.589844 77.910156 "></path><path style=" stroke:none;fill-rule:nonzero;fill:rgb(100%,100%,100%);fill-opacity:1;" d="M 462.707031 95.019531 L 447.683594 95.003906 C 446.136719 95.003906 444.882812 93.746094 444.882812 92.199219 C 444.882812 90.648438 446.140625 89.394531 447.691406 89.394531 L 462.710938 89.410156 C 464.257812 89.414062 465.507812 90.667969 465.507812 92.214844 C 465.507812 93.761719 464.253906 95.015625 462.707031 95.019531 Z M 462.707031 95.019531 "></path></g></svg>