<svg xmlns="http://www.w3.org/2000/svg" xmlns:xlink="http://www.w3.org/1999/xlink" width="684px" height="608px" viewBox="0 0 684 608"><defs><filter id="alpha" filterUnits="objectBoundingBox" x="0%" y="0%" width="100%" height="100%"></filter><mask id="mask0"><g filter="url(#alpha)"><rect x="0" y="0" width="684" height="608" style="fill:rgb(0%,0%,0%);fill-opacity:0.278431;stroke:none;"></rect></g></mask><clipPath id="clip1"><rect x="0" y="0" width="684" height="608"></rect></clipPath><g id="surface5" clip-path="url(#clip1)"><path style=" stroke:none;fill-rule:nonzero;fill:rgb(0%,0%,0%);fill-opacity:1;" d="M 522.535156 317.023438 L 518.972656 358.746094 L 662.898438 356.140625 L 600.132812 226.183594 L 548.882812 223.84375 Z M 522.535156 317.023438 "></path></g></defs><g id="surface1"><path style=" stroke:none;fill-rule:nonzero;fill:rgb(100%,72.156863%,72.156863%);fill-opacity:1;" d="M 603.746094 592.714844 L 592.308594 592.714844 L 586.867188 536.65625 L 603.746094 536.65625 Z M 603.746094 592.714844 "></path><path style=" stroke:none;fill-rule:nonzero;fill:rgb(18.431373%,18.039216%,25.490196%);fill-opacity:1;" d="M 606.664062 606.804688 L 569.78125 606.800781 L 569.78125 606.210938 C 569.785156 596.136719 576.210938 587.96875 584.136719 587.96875 L 606.664062 587.96875 Z M 606.664062 606.804688 "></path><path style=" stroke:none;fill-rule:nonzero;fill:rgb(100%,72.156863%,72.156863%);fill-opacity:1;" d="M 654.226562 556.984375 L 646.800781 568.039062 L 609.710938 536.910156 L 620.667969 520.59375 Z M 654.226562 556.984375 "></path><path style=" stroke:none;fill-rule:nonzero;fill:rgb(18.431373%,18.039216%,25.490196%);fill-opacity:1;" d="M 664.554688 563.308594 L 640.613281 598.957031 L 640.261719 598.574219 C 634.230469 592.035156 633.511719 580.519531 638.65625 572.859375 L 638.660156 572.855469 L 653.28125 551.082031 Z M 664.554688 563.308594 "></path><path style=" stroke:none;fill-rule:nonzero;fill:rgb(18.431373%,18.039216%,25.490196%);fill-opacity:1;" d="M 522.535156 317.023438 L 518.972656 358.746094 L 662.898438 356.140625 L 600.132812 226.183594 L 548.882812 223.84375 Z M 522.535156 317.023438 "></path><use xlink:href="#surface5" mask="url(#mask0)"></use><path style=" stroke:none;fill-rule:nonzero;fill:rgb(18.431373%,18.039216%,25.490196%);fill-opacity:1;" d="M 550.835938 324.1875 L 545.753906 362.363281 L 545.753906 396.488281 L 586.722656 413.480469 C 586.722656 413.480469 581.925781 546.027344 588.320312 554.46875 L 588.160156 574.847656 L 606.035156 575.882812 L 606.179688 561.539062 L 613.757812 454.332031 L 618.21875 375.621094 L 610.984375 315.945312 Z M 550.835938 324.1875 "></path><path style=" stroke:none;fill-rule:nonzero;fill:rgb(18.431373%,18.039216%,25.490196%);fill-opacity:1;" d="M 582.574219 357.050781 L 545.753906 396.488281 C 545.753906 396.488281 543.597656 467.644531 549.070312 475.988281 C 553.773438 483.15625 614.902344 544.976562 614.902344 544.976562 C 614.902344 544.976562 625.765625 557.640625 631.855469 557.84375 C 637.945312 558.042969 645.027344 541.816406 645.027344 541.816406 L 630.925781 528.203125 C 630.925781 528.203125 594.394531 484.871094 583.546875 467.644531 C 579.167969 460.691406 579.167969 459.996094 579.167969 459.996094 L 580.664062 431.078125 L 595.714844 377.410156 Z M 582.574219 357.050781 "></path><path style=" stroke:none;fill-rule:nonzero;fill:rgb(18.431373%,18.039216%,25.490196%);fill-opacity:1;" d="M 543.484375 168.140625 L 527.609375 166.273438 L 513.207031 169.324219 L 482.71875 169.335938 L 480.121094 197.417969 L 507.945312 205.332031 L 514.726562 201.109375 L 542.992188 214.792969 Z M 543.484375 168.140625 "></path><path style=" stroke:none;fill-rule:nonzero;fill:rgb(80%,80%,80%);fill-opacity:1;" d="M 562.441406 168.050781 C 562.441406 168.050781 596.132812 164.039062 603.796875 171.6875 C 611.457031 179.339844 627.875 330.933594 627.875 330.933594 L 562.441406 335.625 L 550.714844 325.367188 L 554.042969 249.6875 Z M 562.441406 168.050781 "></path><path style=" stroke:none;fill-rule:nonzero;fill:rgb(18.431373%,18.039216%,25.490196%);fill-opacity:1;" d="M 572.726562 167.105469 L 535.5625 168.144531 L 500.914062 367.089844 L 528.277344 374.742188 Z M 572.726562 167.105469 "></path><path style=" stroke:none;fill-rule:nonzero;fill:rgb(18.431373%,18.039216%,25.490196%);fill-opacity:1;" d="M 599.148438 165.425781 L 628.421875 177.070312 L 626.757812 258.808594 L 662.898438 356.539062 L 620.414062 362.222656 L 586.832031 256.695312 Z M 599.148438 165.425781 "></path><path style=" stroke:none;fill-rule:nonzero;fill:rgb(100%,72.156863%,72.156863%);fill-opacity:1;" d="M 647.421875 366.464844 C 649.496094 364.140625 650.660156 360.765625 650.589844 357.25 C 650.523438 353.734375 649.230469 350.4375 647.066406 348.246094 L 652.957031 322.140625 L 641.34375 313.722656 L 633.433594 350.738281 C 630.71875 355.714844 631.363281 362.484375 634.929688 366.496094 C 638.5 370.507812 643.863281 370.496094 647.421875 366.464844 Z M 647.421875 366.464844 "></path><path style=" stroke:none;fill-rule:nonzero;fill:rgb(18.431373%,18.039216%,25.490196%);fill-opacity:1;" d="M 611.457031 179.339844 L 628.777344 177.429688 C 628.777344 177.429688 644.332031 198.097656 647.867188 214.097656 C 651.40625 230.101562 655.238281 280.167969 655.238281 280.167969 L 653.640625 353.414062 L 633.390625 335.941406 L 632.03125 272.941406 Z M 611.457031 179.339844 "></path><path style=" stroke:none;fill-rule:nonzero;fill:rgb(100%,72.156863%,72.156863%);fill-opacity:1;" d="M 597.511719 100.179688 C 609.410156 108.445312 613.785156 127.402344 607.277344 142.523438 C 600.773438 157.644531 585.855469 163.203125 573.957031 154.9375 C 562.054688 146.671875 557.683594 127.710938 564.1875 112.59375 C 570.691406 97.472656 585.613281 91.914062 597.511719 100.179688 Z M 597.511719 100.179688 "></path><path style=" stroke:none;fill-rule:nonzero;fill:rgb(18.431373%,18.039216%,25.490196%);fill-opacity:1;" d="M 582.996094 114.53125 C 579.773438 113.585938 576.429688 114.632812 573.167969 115.3125 C 569.902344 115.992188 566.308594 116.21875 563.546875 113.902344 C 561.507812 112.195312 560.253906 109.367188 559.078125 106.648438 C 558.585938 105.679688 558.261719 104.589844 558.117188 103.449219 C 557.980469 101.4375 558.984375 99.605469 560.054688 98.109375 C 565.019531 91.175781 572.273438 87.378906 579.59375 86.175781 C 585.625 85.03125 591.792969 85.988281 597.433594 88.941406 C 602.988281 92.039062 607.761719 97.707031 609.945312 104.898438 C 610.953125 108.578125 611.578125 112.40625 611.8125 116.292969 C 612.144531 119.148438 612.1875 122.046875 611.941406 124.917969 C 611.644531 127.046875 611.207031 129.140625 610.625 131.171875 L 607.007812 145.050781 C 606.746094 146.363281 606.261719 147.585938 605.585938 148.628906 C 604.871094 149.679688 603.695312 150.007812 602.703125 149.429688 C 602.992188 147.921875 603.035156 146.355469 602.832031 144.828125 C 602.601562 143.265625 601.644531 142.042969 600.421875 141.734375 C 599.085938 141.554688 597.949219 142.867188 596.683594 143.433594 C 594.25 144.351562 591.691406 142.585938 590.96875 139.492188 C 590.933594 139.34375 590.902344 139.195312 590.878906 139.042969 C 590.679688 137.457031 591.015625 135.757812 590.539062 134.269531 C 589.984375 132.523438 588.515625 131.609375 587.410156 130.351562 C 585.351562 127.9375 584.582031 124.230469 585.433594 120.839844 C 585.730469 119.683594 586.566406 119.160156 586.398438 117.832031 C 586.179688 116.089844 584.160156 114.875 582.996094 114.53125 Z M 582.996094 114.53125 "></path><path style=" stroke:none;fill-rule:nonzero;fill:rgb(100%,100%,100%);fill-opacity:1;" d="M 310.003906 246.425781 L 0 246.425781 L 0 0 L 310.003906 0 Z M 310.003906 246.425781 "></path><path style=" stroke:none;fill-rule:nonzero;fill:rgb(24.705882%,23.921569%,33.72549%);fill-opacity:1;" d="M 310.003906 246.425781 L 0 246.425781 L 0 0 L 310.003906 0 Z M 1.414062 244.628906 L 308.585938 244.628906 L 308.585938 1.796875 L 1.414062 1.796875 Z M 1.414062 244.628906 "></path><path style=" stroke:none;fill-rule:nonzero;fill:rgb(100%,100%,100%);fill-opacity:1;" d="M 272.136719 587.734375 L 95.195312 587.734375 L 95.195312 341.308594 L 272.136719 341.308594 Z M 272.136719 587.734375 "></path><path style=" stroke:none;fill-rule:nonzero;fill:rgb(24.705882%,23.921569%,33.72549%);fill-opacity:1;" d="M 272.136719 587.734375 L 95.195312 587.734375 L 95.195312 341.308594 L 272.136719 341.308594 Z M 96.609375 585.9375 L 270.722656 585.9375 L 270.722656 343.109375 L 96.609375 343.109375 Z M 96.609375 585.9375 "></path><path style=" stroke:none;fill-rule:nonzero;fill:rgb(24.705882%,23.921569%,33.72549%);fill-opacity:1;" d="M 211.269531 564.460938 L 248.074219 564.460938 L 248.074219 566.355469 L 211.269531 566.355469 Z M 211.269531 564.460938 "></path><path style=" stroke:none;fill-rule:nonzero;fill:rgb(24.705882%,23.921569%,33.72549%);fill-opacity:1;" d="M 211.269531 570.148438 L 248.074219 570.148438 L 248.074219 572.042969 L 211.269531 572.042969 Z M 211.269531 570.148438 "></path><path style=" stroke:none;fill-rule:nonzero;fill:rgb(24.705882%,23.921569%,33.72549%);fill-opacity:1;" d="M 211.269531 575.835938 L 248.074219 575.835938 L 248.074219 577.734375 L 211.269531 577.734375 Z M 211.269531 575.835938 "></path><path style=" stroke:none;fill-rule:nonzero;fill:rgb(90.196078%,90.196078%,90.196078%);fill-opacity:1;" d="M 183.667969 385.378906 L 183.667969 405.164062 C 202.558594 405.164062 219.59375 419.625 226.824219 441.808594 C 234.054688 463.988281 230.058594 489.519531 216.695312 506.496094 L 227.707031 520.484375 C 245.519531 497.851562 250.847656 463.808594 241.207031 434.234375 C 231.570312 404.660156 208.859375 385.378906 183.667969 385.378906 Z M 183.667969 385.378906 "></path><path style=" stroke:none;fill-rule:nonzero;fill:rgb(34.117647%,35.294118%,53.72549%);fill-opacity:1;" d="M 227.707031 520.484375 L 216.695312 506.496094 C 200.179688 527.484375 174 529.742188 155.402344 511.777344 L 145.980469 527.53125 C 170.777344 551.480469 205.683594 548.472656 227.707031 520.484375 Z M 227.707031 520.484375 "></path><path style=" stroke:none;fill-rule:nonzero;fill:rgb(42.352941%,38.823529%,100%);fill-opacity:1;" d="M 136.953125 464.523438 C 136.953125 431.738281 157.867188 405.164062 183.667969 405.164062 L 183.667969 385.378906 C 156.929688 385.378906 133.175781 407.058594 124.640625 439.253906 C 116.105469 471.449219 124.695312 506.976562 145.980469 527.53125 L 155.402344 511.777344 C 143.769531 500.5625 136.941406 483.074219 136.953125 464.523438 Z M 136.953125 464.523438 "></path><path style=" stroke:none;fill-rule:nonzero;fill:rgb(100%,100%,100%);fill-opacity:1;" d="M 534.011719 434.84375 L 357.070312 434.84375 L 357.070312 188.417969 L 534.011719 188.417969 Z M 534.011719 434.84375 "></path><path style=" stroke:none;fill-rule:nonzero;fill:rgb(24.705882%,23.921569%,33.72549%);fill-opacity:1;" d="M 534.011719 434.84375 L 357.070312 434.84375 L 357.070312 188.417969 L 534.011719 188.417969 Z M 358.484375 433.042969 L 532.597656 433.042969 L 532.597656 190.214844 L 358.484375 190.214844 Z M 358.484375 433.042969 "></path><path style=" stroke:none;fill-rule:nonzero;fill:rgb(34.117647%,35.294118%,53.72549%);fill-opacity:1;" d="M 382.550781 339.0625 L 414.398438 339.0625 L 414.398438 403.816406 L 382.550781 403.816406 Z M 382.550781 339.0625 "></path><path style=" stroke:none;fill-rule:nonzero;fill:rgb(90.196078%,90.196078%,90.196078%);fill-opacity:1;" d="M 428.554688 294.992188 L 460.402344 294.992188 L 460.402344 403.816406 L 428.554688 403.816406 Z M 428.554688 294.992188 "></path><path style=" stroke:none;fill-rule:nonzero;fill:rgb(42.352941%,38.823529%,100%);fill-opacity:1;" d="M 474.558594 243.726562 L 506.410156 243.726562 L 506.410156 403.816406 L 474.558594 403.816406 Z M 474.558594 243.726562 "></path><path style=" stroke:none;fill-rule:nonzero;fill:rgb(24.705882%,23.921569%,33.72549%);fill-opacity:1;" d="M 517.023438 405.613281 L 374.054688 405.613281 L 374.054688 217.644531 L 375.472656 217.644531 L 375.472656 403.816406 L 517.023438 403.816406 Z M 517.023438 405.613281 "></path><path style=" stroke:none;fill-rule:nonzero;fill:rgb(100%,72.156863%,72.156863%);fill-opacity:1;" d="M 492.304688 182.589844 C 492.304688 189.433594 487.941406 194.976562 482.554688 194.976562 C 477.171875 194.976562 472.808594 189.433594 472.808594 182.589844 C 472.808594 175.75 477.171875 170.203125 482.554688 170.203125 C 487.941406 170.203125 492.304688 175.75 492.304688 182.589844 Z M 492.304688 182.589844 "></path><path style=" stroke:none;fill-rule:nonzero;fill:rgb(80%,80%,80%);fill-opacity:1;" d="M 682.855469 608 L 530.945312 608 C 530.496094 608 530.132812 607.539062 530.132812 606.96875 C 530.132812 606.398438 530.496094 605.933594 530.945312 605.933594 L 682.855469 605.933594 C 683.304688 605.933594 683.667969 606.398438 683.667969 606.96875 C 683.667969 607.539062 683.304688 608 682.855469 608 Z M 682.855469 608 "></path><path style=" stroke:none;fill-rule:nonzero;fill:rgb(24.705882%,23.921569%,33.72549%);fill-opacity:1;" d="M 266.949219 194.890625 L 43.050781 194.890625 C 42.664062 194.890625 42.351562 194.492188 42.351562 194 L 42.351562 57.632812 C 42.351562 57.140625 42.664062 56.742188 43.050781 56.742188 C 43.4375 56.742188 43.753906 57.140625 43.753906 57.632812 L 43.753906 193.109375 L 266.949219 193.109375 C 267.203125 193.105469 267.433594 193.277344 267.558594 193.550781 C 267.683594 193.828125 267.683594 194.167969 267.558594 194.445312 C 267.433594 194.71875 267.203125 194.890625 266.949219 194.890625 Z M 266.949219 194.890625 "></path><path style=" stroke:none;fill-rule:nonzero;fill:rgb(42.352941%,38.823529%,100%);fill-opacity:1;" d="M 90.890625 185.09375 L 70.523438 185.09375 C 69.375 185.09375 68.445312 183.910156 68.445312 182.453125 L 68.445312 146.78125 C 68.445312 145.320312 69.375 144.136719 70.523438 144.136719 L 90.890625 144.136719 C 92.039062 144.136719 92.96875 145.320312 92.96875 146.78125 L 92.96875 182.453125 C 92.96875 183.910156 92.039062 185.09375 90.890625 185.09375 Z M 90.890625 185.09375 "></path><path style=" stroke:none;fill-rule:nonzero;fill:rgb(42.352941%,38.823529%,100%);fill-opacity:1;" d="M 128.027344 185.09375 L 107.664062 185.09375 C 106.515625 185.09375 105.582031 183.910156 105.582031 182.453125 L 105.582031 112.945312 C 105.582031 111.484375 106.515625 110.304688 107.664062 110.300781 L 128.027344 110.300781 C 129.175781 110.304688 130.105469 111.484375 130.105469 112.945312 L 130.105469 182.453125 C 130.105469 183.910156 129.175781 185.09375 128.027344 185.09375 Z M 128.027344 185.09375 "></path><path style=" stroke:none;fill-rule:nonzero;fill:rgb(42.352941%,38.823529%,100%);fill-opacity:1;" d="M 165.164062 185.09375 L 144.800781 185.09375 C 143.652344 185.09375 142.71875 183.910156 142.71875 182.453125 L 142.71875 146.78125 C 142.71875 145.320312 143.652344 144.136719 144.800781 144.136719 L 165.164062 144.136719 C 166.3125 144.136719 167.242188 145.320312 167.242188 146.78125 L 167.242188 182.453125 C 167.242188 183.910156 166.3125 185.09375 165.164062 185.09375 Z M 165.164062 185.09375 "></path><path style=" stroke:none;fill-rule:nonzero;fill:rgb(42.352941%,38.823529%,100%);fill-opacity:1;" d="M 202.300781 185.09375 L 181.9375 185.09375 C 180.816406 185.125 179.882812 183.996094 179.855469 182.570312 L 179.855469 99.46875 C 179.882812 98.042969 180.816406 96.914062 181.9375 96.945312 L 202.300781 96.945312 C 203.421875 96.914062 204.351562 98.042969 204.382812 99.46875 L 204.382812 182.570312 C 204.351562 183.996094 203.421875 185.125 202.300781 185.09375 Z M 202.300781 185.09375 "></path><path style=" stroke:none;fill-rule:nonzero;fill:rgb(42.352941%,38.823529%,100%);fill-opacity:1;" d="M 239.4375 185.09375 L 219.074219 185.09375 C 217.925781 185.09375 216.996094 183.910156 216.992188 182.453125 L 216.992188 75.550781 C 216.996094 74.089844 217.925781 72.90625 219.074219 72.90625 L 239.4375 72.90625 C 240.585938 72.90625 241.515625 74.089844 241.519531 75.550781 L 241.519531 182.453125 C 241.515625 183.910156 240.585938 185.09375 239.4375 185.09375 Z M 239.4375 185.09375 "></path><path style=" stroke:none;fill-rule:nonzero;fill:rgb(24.705882%,23.921569%,33.72549%);fill-opacity:1;" d="M 84.910156 128.109375 C 84.910156 131.0625 83.027344 133.453125 80.707031 133.453125 C 78.386719 133.453125 76.503906 131.0625 76.503906 128.109375 C 76.503906 125.160156 78.386719 122.769531 80.707031 122.769531 C 83.027344 122.769531 84.910156 125.160156 84.910156 128.109375 Z M 84.910156 128.109375 "></path><path style=" stroke:none;fill-rule:nonzero;fill:rgb(24.705882%,23.921569%,33.72549%);fill-opacity:1;" d="M 122.046875 93.386719 C 122.046875 96.335938 120.167969 98.726562 117.84375 98.726562 C 115.523438 98.726562 113.640625 96.335938 113.640625 93.386719 C 113.640625 90.433594 115.523438 88.042969 117.84375 88.042969 C 120.167969 88.042969 122.046875 90.433594 122.046875 93.386719 Z M 122.046875 93.386719 "></path><path style=" stroke:none;fill-rule:nonzero;fill:rgb(24.705882%,23.921569%,33.72549%);fill-opacity:1;" d="M 159.1875 128.109375 C 159.1875 131.0625 157.304688 133.453125 154.980469 133.453125 C 152.660156 133.453125 150.777344 131.0625 150.777344 128.109375 C 150.777344 125.160156 152.660156 122.769531 154.980469 122.769531 C 157.304688 122.769531 159.1875 125.160156 159.1875 128.109375 Z M 159.1875 128.109375 "></path><path style=" stroke:none;fill-rule:nonzero;fill:rgb(24.705882%,23.921569%,33.72549%);fill-opacity:1;" d="M 196.324219 76.46875 C 196.324219 79.417969 194.441406 81.808594 192.117188 81.808594 C 189.796875 81.808594 187.914062 79.417969 187.914062 76.46875 C 187.914062 73.515625 189.796875 71.125 192.117188 71.125 C 194.441406 71.125 196.324219 73.515625 196.324219 76.46875 Z M 196.324219 76.46875 "></path><path style=" stroke:none;fill-rule:nonzero;fill:rgb(24.705882%,23.921569%,33.72549%);fill-opacity:1;" d="M 233.460938 56.878906 C 233.460938 59.828125 231.578125 62.222656 229.257812 62.222656 C 226.933594 62.222656 225.050781 59.828125 225.050781 56.878906 C 225.050781 53.929688 226.933594 51.535156 229.257812 51.535156 C 231.578125 51.535156 233.460938 53.929688 233.460938 56.878906 Z M 233.460938 56.878906 "></path><path style=" stroke:none;fill-rule:nonzero;fill:rgb(24.705882%,23.921569%,33.72549%);fill-opacity:1;" d="M 155.070312 129.308594 L 117.84375 93.875 L 81.128906 128.824219 L 80.289062 127.398438 L 117.84375 91.652344 L 154.894531 126.914062 L 191.710938 75.71875 L 191.855469 75.640625 L 228.992188 56.628906 L 229.519531 58.28125 L 192.527344 77.21875 Z M 155.070312 129.308594 "></path></g></svg>