<svg xmlns="http://www.w3.org/2000/svg" xmlns:xlink="http://www.w3.org/1999/xlink" width="684px" height="608px" viewBox="0 0 684 608"><g id="surface1"><path style=" stroke:none;fill-rule:nonzero;fill:rgb(94.901961%,94.901961%,94.901961%);fill-opacity:1;" d="M 616.386719 316.339844 C 616.476562 391.554688 587.996094 463.878906 536.933594 518.105469 C 533.855469 521.394531 530.695312 524.605469 527.449219 527.738281 C 522.507812 532.535156 517.398438 537.152344 512.121094 541.578125 C 462.773438 583.085938 401.167969 606.40625 337.238281 607.785156 C 335.109375 607.835938 332.972656 607.859375 330.824219 607.859375 C 279.84375 607.859375 215.71875 580.0625 157.527344 541.578125 C 152.710938 538.394531 147.941406 535.136719 143.210938 531.808594 C 141.003906 530.265625 138.800781 528.699219 136.613281 527.113281 C 114.167969 510.933594 92.867188 493.167969 72.859375 473.945312 C 59.761719 461.394531 47.476562 447.984375 36.085938 433.804688 C -8.625 377.5 -18.488281 326.769531 45.257812 316.339844 C 52.804688 315.109375 60.128906 313.792969 67.234375 312.394531 C 77.519531 310.375 87.367188 308.195312 96.769531 305.855469 C 109.4375 302.710938 121.339844 299.304688 132.472656 295.628906 C 136.21875 294.398438 139.878906 293.144531 143.453125 291.863281 C 196.292969 272.917969 231.660156 248.214844 255.730469 221.40625 C 259.8125 216.871094 263.578125 212.277344 267.023438 207.628906 C 272.296875 200.558594 277.082031 193.121094 281.355469 185.378906 C 287.25 174.617188 292.203125 163.347656 296.152344 151.695312 L 296.367188 151.054688 C 315.523438 94.652344 309.695312 42.339844 330.828125 24.828125 C 421.152344 -50.027344 533.605469 56.574219 586.390625 182.285156 C 589.050781 188.617188 591.550781 194.992188 593.898438 201.402344 C 594.949219 204.265625 595.964844 207.136719 596.941406 210.011719 C 599.515625 217.5 601.847656 225.011719 603.945312 232.542969 C 604.746094 235.414062 605.515625 238.28125 606.242188 241.148438 C 607.023438 244.242188 607.769531 247.328125 608.460938 250.410156 C 613.597656 273 616.386719 295.277344 616.386719 316.339844 Z M 616.386719 316.339844 "></path><path style=" stroke:none;fill-rule:nonzero;fill:rgb(18.431373%,18.039216%,25.490196%);fill-opacity:1;" d="M 337.238281 607.785156 C 335.109375 607.835938 332.972656 607.859375 330.824219 607.859375 C 279.84375 607.859375 215.71875 580.0625 157.527344 541.578125 C 152.710938 538.394531 147.941406 535.136719 143.210938 531.808594 L 147.359375 506.042969 L 272.914062 489.023438 L 335.929688 538.214844 Z M 337.238281 607.785156 "></path><path style=" stroke:none;fill-rule:nonzero;fill:rgb(100%,100%,100%);fill-opacity:1;" d="M 343.285156 147.734375 L 325.394531 147.734375 C 324.238281 147.734375 323.304688 148.6875 323.304688 149.867188 L 323.304688 168.140625 C 323.304688 168.703125 323.523438 169.246094 323.917969 169.644531 C 324.308594 170.042969 324.839844 170.265625 325.394531 170.265625 L 343.285156 170.265625 C 344.4375 170.265625 345.371094 169.3125 345.375 168.140625 L 345.375 149.867188 C 345.371094 148.691406 344.4375 147.738281 343.285156 147.734375 Z M 343.285156 147.734375 "></path><path style=" stroke:none;fill-rule:nonzero;fill:rgb(90.196078%,90.196078%,90.196078%);fill-opacity:1;" d="M 343.285156 178.871094 L 325.394531 178.871094 C 324.238281 178.871094 323.304688 179.828125 323.304688 181.003906 L 323.304688 199.277344 C 323.304688 199.84375 323.523438 200.382812 323.917969 200.78125 C 324.308594 201.179688 324.839844 201.40625 325.394531 201.402344 L 343.285156 201.402344 C 344.4375 201.402344 345.371094 200.453125 345.375 199.277344 L 345.375 181.003906 C 345.371094 179.828125 344.4375 178.875 343.285156 178.871094 Z M 343.285156 178.871094 "></path><path style=" stroke:none;fill-rule:nonzero;fill:rgb(90.196078%,90.196078%,90.196078%);fill-opacity:1;" d="M 343.285156 210.011719 L 325.394531 210.011719 C 324.238281 210.011719 323.304688 210.964844 323.304688 212.144531 L 323.304688 230.40625 C 323.300781 230.972656 323.523438 231.515625 323.914062 231.917969 C 324.304688 232.316406 324.839844 232.542969 325.394531 232.542969 L 343.285156 232.542969 C 344.4375 232.539062 345.375 231.585938 345.375 230.40625 L 345.375 212.144531 C 345.371094 210.964844 344.4375 210.011719 343.285156 210.011719 Z M 343.285156 210.011719 "></path><path style=" stroke:none;fill-rule:nonzero;fill:rgb(90.196078%,90.196078%,90.196078%);fill-opacity:1;" d="M 345.34375 242.902344 C 345.15625 241.890625 344.292969 241.152344 343.285156 241.148438 L 325.394531 241.148438 C 324.238281 241.148438 323.304688 242.105469 323.304688 243.28125 L 323.304688 261.546875 C 323.300781 262.113281 323.523438 262.65625 323.914062 263.054688 C 324.304688 263.457031 324.839844 263.679688 325.394531 263.679688 L 343.285156 263.679688 C 344.4375 263.679688 345.375 262.722656 345.375 261.546875 L 345.375 243.28125 C 345.375 243.15625 345.363281 243.027344 345.34375 242.902344 Z M 345.34375 242.902344 "></path><path style=" stroke:none;fill-rule:nonzero;fill:rgb(90.196078%,90.196078%,90.196078%);fill-opacity:1;" d="M 344.097656 272.449219 C 343.839844 272.34375 343.5625 272.285156 343.285156 272.285156 L 325.394531 272.285156 C 324.839844 272.285156 324.304688 272.511719 323.914062 272.910156 C 323.523438 273.3125 323.300781 273.855469 323.304688 274.421875 L 323.304688 292.683594 C 323.300781 293.25 323.519531 293.796875 323.914062 294.195312 C 324.304688 294.597656 324.835938 294.820312 325.394531 294.816406 L 343.285156 294.816406 C 344.4375 294.816406 345.375 293.863281 345.375 292.683594 L 345.375 274.421875 C 345.371094 273.5625 344.871094 272.789062 344.097656 272.449219 Z M 344.097656 272.449219 "></path><path style=" stroke:none;fill-rule:nonzero;fill:rgb(90.196078%,90.196078%,90.196078%);fill-opacity:1;" d="M 380.867188 147.734375 L 362.976562 147.734375 C 361.824219 147.734375 360.886719 148.6875 360.886719 149.867188 L 360.886719 168.140625 C 360.886719 168.703125 361.109375 169.246094 361.5 169.644531 C 361.890625 170.042969 362.421875 170.265625 362.976562 170.265625 L 380.867188 170.265625 C 382.019531 170.265625 382.953125 169.3125 382.957031 168.140625 L 382.957031 149.867188 C 382.953125 148.691406 382.019531 147.738281 380.867188 147.734375 Z M 380.867188 147.734375 "></path><path style=" stroke:none;fill-rule:nonzero;fill:rgb(42.352941%,38.823529%,100%);fill-opacity:1;" d="M 380.867188 178.871094 L 362.976562 178.871094 C 361.824219 178.871094 360.886719 179.828125 360.886719 181.003906 L 360.886719 199.277344 C 360.886719 199.84375 361.109375 200.382812 361.5 200.78125 C 361.890625 201.179688 362.421875 201.40625 362.976562 201.402344 L 380.867188 201.402344 C 382.019531 201.402344 382.953125 200.453125 382.957031 199.277344 L 382.957031 181.003906 C 382.953125 179.828125 382.019531 178.875 380.867188 178.871094 Z M 380.867188 178.871094 "></path><path style=" stroke:none;fill-rule:nonzero;fill:rgb(42.352941%,38.823529%,100%);fill-opacity:1;" d="M 380.867188 210.011719 L 362.976562 210.011719 C 361.824219 210.011719 360.886719 210.964844 360.886719 212.144531 L 360.886719 230.40625 C 360.886719 230.972656 361.105469 231.515625 361.496094 231.917969 C 361.890625 232.316406 362.421875 232.542969 362.976562 232.542969 L 380.867188 232.542969 C 382.023438 232.539062 382.957031 231.585938 382.957031 230.40625 L 382.957031 212.144531 C 382.953125 210.964844 382.019531 210.011719 380.867188 210.011719 Z M 380.867188 210.011719 "></path><path style=" stroke:none;fill-rule:nonzero;fill:rgb(42.352941%,38.823529%,100%);fill-opacity:1;" d="M 380.867188 241.148438 L 362.976562 241.148438 C 362.078125 241.148438 361.28125 241.738281 361 242.609375 C 360.925781 242.824219 360.886719 243.050781 360.886719 243.28125 L 360.886719 261.546875 C 360.886719 262.113281 361.105469 262.65625 361.496094 263.054688 C 361.890625 263.457031 362.421875 263.679688 362.976562 263.679688 L 380.867188 263.679688 C 382.023438 263.679688 382.957031 262.722656 382.957031 261.546875 L 382.957031 243.28125 C 382.953125 242.105469 382.019531 241.152344 380.867188 241.148438 Z M 380.867188 241.148438 "></path><path style=" stroke:none;fill-rule:nonzero;fill:rgb(90.196078%,90.196078%,90.196078%);fill-opacity:1;" d="M 380.867188 272.285156 L 362.976562 272.285156 C 362.421875 272.285156 361.890625 272.511719 361.496094 272.910156 C 361.105469 273.3125 360.886719 273.855469 360.886719 274.421875 L 360.886719 292.683594 C 360.886719 293.25 361.105469 293.792969 361.496094 294.195312 C 361.890625 294.59375 362.421875 294.820312 362.976562 294.816406 L 380.867188 294.816406 C 382.023438 294.816406 382.957031 293.863281 382.957031 292.683594 L 382.957031 274.421875 C 382.957031 273.242188 382.023438 272.289062 380.867188 272.285156 Z M 380.867188 272.285156 "></path><path style=" stroke:none;fill-rule:nonzero;fill:rgb(42.352941%,38.823529%,100%);fill-opacity:1;" d="M 418.453125 147.734375 L 400.558594 147.734375 C 399.40625 147.734375 398.472656 148.6875 398.472656 149.867188 L 398.472656 168.140625 C 398.472656 168.703125 398.691406 169.246094 399.082031 169.644531 C 399.476562 170.042969 400.007812 170.265625 400.558594 170.265625 L 418.453125 170.265625 C 419.601562 170.265625 420.539062 169.3125 420.542969 168.140625 L 420.542969 149.867188 C 420.539062 148.691406 419.605469 147.738281 418.453125 147.734375 Z M 418.453125 147.734375 "></path><path style=" stroke:none;fill-rule:nonzero;fill:rgb(42.352941%,38.823529%,100%);fill-opacity:1;" d="M 418.453125 178.871094 L 400.558594 178.871094 C 399.40625 178.871094 398.472656 179.828125 398.472656 181.003906 L 398.472656 199.277344 C 398.472656 199.84375 398.691406 200.382812 399.082031 200.78125 C 399.476562 201.179688 400.007812 201.40625 400.558594 201.402344 L 418.453125 201.402344 C 419.601562 201.402344 420.539062 200.453125 420.542969 199.277344 L 420.542969 181.003906 C 420.539062 179.828125 419.605469 178.875 418.453125 178.871094 Z M 418.453125 178.871094 "></path><path style=" stroke:none;fill-rule:nonzero;fill:rgb(90.196078%,90.196078%,90.196078%);fill-opacity:1;" d="M 418.453125 210.011719 L 400.558594 210.011719 C 399.40625 210.011719 398.472656 210.964844 398.472656 212.144531 L 398.472656 230.40625 C 398.46875 230.972656 398.6875 231.515625 399.082031 231.917969 C 399.472656 232.316406 400.003906 232.542969 400.558594 232.542969 L 418.453125 232.542969 C 419.605469 232.539062 420.542969 231.585938 420.542969 230.40625 L 420.542969 212.144531 C 420.539062 210.964844 419.605469 210.011719 418.453125 210.011719 Z M 418.453125 210.011719 "></path><path style=" stroke:none;fill-rule:nonzero;fill:rgb(42.352941%,38.823529%,100%);fill-opacity:1;" d="M 418.453125 241.148438 L 400.558594 241.148438 C 399.40625 241.148438 398.472656 242.105469 398.472656 243.28125 L 398.472656 261.546875 C 398.46875 262.113281 398.6875 262.65625 399.082031 263.054688 C 399.472656 263.457031 400.003906 263.679688 400.558594 263.679688 L 418.453125 263.679688 C 419.605469 263.679688 420.542969 262.722656 420.542969 261.546875 L 420.542969 243.28125 C 420.539062 242.105469 419.605469 241.152344 418.453125 241.148438 Z M 418.453125 241.148438 "></path><path style=" stroke:none;fill-rule:nonzero;fill:rgb(42.352941%,38.823529%,100%);fill-opacity:1;" d="M 418.453125 272.285156 L 400.558594 272.285156 C 400.003906 272.285156 399.472656 272.511719 399.082031 272.910156 C 398.6875 273.3125 398.46875 273.855469 398.472656 274.421875 L 398.472656 292.683594 C 398.46875 293.25 398.6875 293.792969 399.082031 294.195312 C 399.472656 294.59375 400.003906 294.820312 400.558594 294.816406 L 418.453125 294.816406 C 419.605469 294.816406 420.542969 293.863281 420.542969 292.683594 L 420.542969 274.421875 C 420.542969 273.242188 419.605469 272.289062 418.453125 272.285156 Z M 418.453125 272.285156 "></path><path style=" stroke:none;fill-rule:nonzero;fill:rgb(42.352941%,38.823529%,100%);fill-opacity:1;" d="M 456.035156 147.734375 L 438.144531 147.734375 C 436.992188 147.734375 436.054688 148.6875 436.054688 149.867188 L 436.054688 168.140625 C 436.054688 168.703125 436.277344 169.246094 436.667969 169.644531 C 437.058594 170.042969 437.589844 170.265625 438.144531 170.265625 L 456.035156 170.265625 C 457.1875 170.265625 458.121094 169.3125 458.125 168.140625 L 458.125 149.867188 C 458.121094 148.691406 457.1875 147.738281 456.035156 147.734375 Z M 456.035156 147.734375 "></path><path style=" stroke:none;fill-rule:nonzero;fill:rgb(100%,100%,100%);fill-opacity:1;" d="M 456.035156 178.871094 L 438.144531 178.871094 C 436.992188 178.871094 436.054688 179.828125 436.054688 181.003906 L 436.054688 199.277344 C 436.054688 199.84375 436.277344 200.382812 436.667969 200.78125 C 437.058594 201.179688 437.589844 201.40625 438.144531 201.402344 L 456.035156 201.402344 C 457.1875 201.402344 458.121094 200.453125 458.125 199.277344 L 458.125 181.003906 C 458.121094 179.828125 457.1875 178.875 456.035156 178.871094 Z M 456.035156 178.871094 "></path><path style=" stroke:none;fill-rule:nonzero;fill:rgb(100%,100%,100%);fill-opacity:1;" d="M 456.035156 210.011719 L 438.144531 210.011719 C 436.992188 210.011719 436.054688 210.964844 436.054688 212.144531 L 436.054688 230.40625 C 436.054688 230.972656 436.273438 231.515625 436.664062 231.917969 C 437.058594 232.316406 437.589844 232.542969 438.144531 232.542969 L 456.035156 232.542969 C 457.191406 232.539062 458.125 231.585938 458.125 230.40625 L 458.125 212.144531 C 458.121094 210.964844 457.1875 210.011719 456.035156 210.011719 Z M 456.035156 210.011719 "></path><path style=" stroke:none;fill-rule:nonzero;fill:rgb(90.196078%,90.196078%,90.196078%);fill-opacity:1;" d="M 456.035156 241.148438 L 438.144531 241.148438 C 436.992188 241.148438 436.054688 242.105469 436.054688 243.28125 L 436.054688 261.546875 C 436.054688 262.113281 436.273438 262.65625 436.664062 263.054688 C 437.058594 263.457031 437.589844 263.679688 438.144531 263.679688 L 456.035156 263.679688 C 457.191406 263.679688 458.125 262.722656 458.125 261.546875 L 458.125 243.28125 C 458.121094 242.105469 457.1875 241.152344 456.035156 241.148438 Z M 456.035156 241.148438 "></path><path style=" stroke:none;fill-rule:nonzero;fill:rgb(42.352941%,38.823529%,100%);fill-opacity:1;" d="M 456.035156 272.285156 L 438.144531 272.285156 C 437.589844 272.285156 437.058594 272.511719 436.664062 272.910156 C 436.273438 273.3125 436.054688 273.855469 436.054688 274.421875 L 436.054688 292.683594 C 436.054688 293.25 436.273438 293.792969 436.664062 294.195312 C 437.058594 294.59375 437.589844 294.820312 438.144531 294.816406 L 456.035156 294.816406 C 457.191406 294.816406 458.125 293.863281 458.125 292.683594 L 458.125 274.421875 C 458.125 273.242188 457.191406 272.289062 456.035156 272.285156 Z M 456.035156 272.285156 "></path><path style=" stroke:none;fill-rule:nonzero;fill:rgb(100%,100%,100%);fill-opacity:1;" d="M 493.621094 147.734375 L 475.71875 147.734375 C 474.570312 147.738281 473.636719 148.691406 473.636719 149.867188 L 473.636719 168.140625 C 473.636719 169.3125 474.570312 170.265625 475.71875 170.265625 L 493.621094 170.265625 C 494.769531 170.265625 495.707031 169.3125 495.710938 168.140625 L 495.710938 149.867188 C 495.707031 148.691406 494.773438 147.738281 493.621094 147.734375 Z M 493.621094 147.734375 "></path><path style=" stroke:none;fill-rule:nonzero;fill:rgb(100%,100%,100%);fill-opacity:1;" d="M 493.621094 178.871094 L 475.71875 178.871094 C 474.570312 178.875 473.636719 179.828125 473.636719 181.003906 L 473.636719 199.277344 C 473.636719 200.453125 474.570312 201.402344 475.71875 201.402344 L 493.621094 201.402344 C 494.769531 201.402344 495.707031 200.453125 495.710938 199.277344 L 495.710938 181.003906 C 495.707031 179.828125 494.773438 178.875 493.621094 178.871094 Z M 493.621094 178.871094 "></path><path style=" stroke:none;fill-rule:nonzero;fill:rgb(100%,100%,100%);fill-opacity:1;" d="M 493.621094 210.011719 L 475.71875 210.011719 C 474.570312 210.015625 473.636719 210.96875 473.636719 212.144531 L 473.636719 230.40625 C 473.636719 230.972656 473.855469 231.515625 474.246094 231.914062 C 474.636719 232.316406 475.167969 232.539062 475.71875 232.542969 L 493.621094 232.542969 C 494.773438 232.539062 495.710938 231.585938 495.710938 230.40625 L 495.710938 212.144531 C 495.707031 210.964844 494.773438 210.011719 493.621094 210.011719 Z M 493.621094 210.011719 "></path><path style=" stroke:none;fill-rule:nonzero;fill:rgb(42.352941%,38.823529%,100%);fill-opacity:1;" d="M 493.621094 241.148438 L 475.71875 241.148438 C 474.570312 241.152344 473.636719 242.105469 473.636719 243.28125 L 473.636719 261.546875 C 473.636719 262.109375 473.855469 262.652344 474.246094 263.054688 C 474.636719 263.453125 475.167969 263.679688 475.71875 263.679688 L 493.621094 263.679688 C 494.773438 263.679688 495.710938 262.722656 495.710938 261.546875 L 495.710938 243.28125 C 495.707031 242.105469 494.773438 241.152344 493.621094 241.148438 Z M 493.621094 241.148438 "></path><path style=" stroke:none;fill-rule:nonzero;fill:rgb(90.196078%,90.196078%,90.196078%);fill-opacity:1;" d="M 493.621094 272.285156 L 475.71875 272.285156 C 475.167969 272.289062 474.636719 272.511719 474.246094 272.914062 C 473.855469 273.3125 473.636719 273.855469 473.636719 274.421875 L 473.636719 292.683594 C 473.636719 293.25 473.855469 293.792969 474.246094 294.191406 C 474.636719 294.59375 475.167969 294.816406 475.71875 294.816406 L 493.621094 294.816406 C 494.773438 294.816406 495.710938 293.863281 495.710938 292.683594 L 495.710938 274.421875 C 495.710938 273.242188 494.773438 272.289062 493.621094 272.285156 Z M 493.621094 272.285156 "></path><path style=" stroke:none;fill-rule:nonzero;fill:rgb(100%,100%,100%);fill-opacity:1;" d="M 531.203125 147.734375 L 513.304688 147.734375 C 512.152344 147.738281 511.222656 148.691406 511.222656 149.867188 L 511.222656 168.140625 C 511.222656 169.3125 512.152344 170.265625 513.304688 170.265625 L 531.203125 170.265625 C 532.355469 170.265625 533.289062 169.3125 533.292969 168.140625 L 533.292969 149.867188 C 533.289062 148.691406 532.355469 147.738281 531.203125 147.734375 Z M 531.203125 147.734375 "></path><path style=" stroke:none;fill-rule:nonzero;fill:rgb(100%,100%,100%);fill-opacity:1;" d="M 531.203125 178.871094 L 513.304688 178.871094 C 512.152344 178.875 511.222656 179.828125 511.222656 181.003906 L 511.222656 199.277344 C 511.222656 200.453125 512.152344 201.402344 513.304688 201.402344 L 531.203125 201.402344 C 532.355469 201.402344 533.289062 200.453125 533.292969 199.277344 L 533.292969 181.003906 C 533.289062 179.828125 532.355469 178.875 531.203125 178.871094 Z M 531.203125 178.871094 "></path><path style=" stroke:none;fill-rule:nonzero;fill:rgb(42.352941%,38.823529%,100%);fill-opacity:1;" d="M 531.203125 210.011719 L 513.304688 210.011719 C 512.152344 210.015625 511.222656 210.96875 511.222656 212.144531 L 511.222656 230.40625 C 511.21875 230.972656 511.4375 231.515625 511.828125 231.914062 C 512.21875 232.316406 512.75 232.539062 513.304688 232.542969 L 531.203125 232.542969 C 532.359375 232.539062 533.292969 231.585938 533.292969 230.40625 L 533.292969 212.144531 C 533.289062 210.964844 532.355469 210.011719 531.203125 210.011719 Z M 531.203125 210.011719 "></path><path style=" stroke:none;fill-rule:nonzero;fill:rgb(90.196078%,90.196078%,90.196078%);fill-opacity:1;" d="M 531.203125 241.148438 L 513.304688 241.148438 C 512.152344 241.152344 511.222656 242.105469 511.222656 243.28125 L 511.222656 261.546875 C 511.21875 262.109375 511.4375 262.652344 511.828125 263.054688 C 512.21875 263.453125 512.75 263.679688 513.304688 263.679688 L 531.203125 263.679688 C 532.359375 263.679688 533.292969 262.722656 533.292969 261.546875 L 533.292969 243.28125 C 533.289062 242.105469 532.355469 241.152344 531.203125 241.148438 Z M 531.203125 241.148438 "></path><path style=" stroke:none;fill-rule:nonzero;fill:rgb(100%,100%,100%);fill-opacity:1;" d="M 531.203125 272.285156 L 513.304688 272.285156 C 512.75 272.289062 512.21875 272.511719 511.828125 272.914062 C 511.4375 273.3125 511.21875 273.855469 511.222656 274.421875 L 511.222656 292.683594 C 511.21875 293.25 511.4375 293.792969 511.828125 294.191406 C 512.21875 294.59375 512.75 294.816406 513.304688 294.816406 L 531.203125 294.816406 C 532.359375 294.816406 533.292969 293.863281 533.292969 292.683594 L 533.292969 274.421875 C 533.292969 273.242188 532.359375 272.289062 531.203125 272.285156 Z M 531.203125 272.285156 "></path><path style=" stroke:none;fill-rule:nonzero;fill:rgb(42.352941%,38.823529%,100%);fill-opacity:1;" d="M 568.789062 147.734375 L 550.886719 147.734375 C 549.738281 147.738281 548.804688 148.691406 548.804688 149.867188 L 548.804688 168.140625 C 548.804688 169.3125 549.738281 170.265625 550.886719 170.265625 L 568.789062 170.265625 C 569.9375 170.265625 570.875 169.3125 570.878906 168.140625 L 570.878906 149.867188 C 570.875 148.691406 569.941406 147.738281 568.789062 147.734375 Z M 568.789062 147.734375 "></path><path style=" stroke:none;fill-rule:nonzero;fill:rgb(42.352941%,38.823529%,100%);fill-opacity:1;" d="M 568.789062 178.871094 L 550.886719 178.871094 C 549.738281 178.875 548.804688 179.828125 548.804688 181.003906 L 548.804688 199.277344 C 548.804688 200.453125 549.738281 201.402344 550.886719 201.402344 L 568.789062 201.402344 C 569.9375 201.402344 570.875 200.453125 570.878906 199.277344 L 570.878906 181.003906 C 570.875 179.828125 569.941406 178.875 568.789062 178.871094 Z M 568.789062 178.871094 "></path><path style=" stroke:none;fill-rule:nonzero;fill:rgb(90.196078%,90.196078%,90.196078%);fill-opacity:1;" d="M 568.789062 210.011719 L 550.886719 210.011719 C 549.738281 210.015625 548.804688 210.96875 548.804688 212.144531 L 548.804688 230.40625 C 548.804688 230.972656 549.023438 231.515625 549.414062 231.914062 C 549.804688 232.316406 550.335938 232.539062 550.886719 232.542969 L 568.789062 232.542969 C 569.941406 232.539062 570.875 231.585938 570.878906 230.40625 L 570.878906 212.144531 C 570.875 210.964844 569.941406 210.011719 568.789062 210.011719 Z M 568.789062 210.011719 "></path><path style=" stroke:none;fill-rule:nonzero;fill:rgb(100%,100%,100%);fill-opacity:1;" d="M 568.789062 241.148438 L 550.886719 241.148438 C 549.738281 241.152344 548.804688 242.105469 548.804688 243.28125 L 548.804688 261.546875 C 548.804688 262.109375 549.023438 262.652344 549.414062 263.054688 C 549.804688 263.453125 550.335938 263.679688 550.886719 263.679688 L 568.789062 263.679688 C 569.941406 263.679688 570.875 262.722656 570.878906 261.546875 L 570.878906 243.28125 C 570.875 242.105469 569.941406 241.152344 568.789062 241.148438 Z M 568.789062 241.148438 "></path><path style=" stroke:none;fill-rule:nonzero;fill:rgb(42.352941%,38.823529%,100%);fill-opacity:1;" d="M 568.789062 272.285156 L 550.886719 272.285156 C 550.335938 272.289062 549.804688 272.511719 549.414062 272.914062 C 549.023438 273.3125 548.804688 273.855469 548.804688 274.421875 L 548.804688 292.683594 C 548.804688 293.25 549.023438 293.792969 549.414062 294.191406 C 549.804688 294.59375 550.335938 294.816406 550.886719 294.816406 L 568.789062 294.816406 C 569.941406 294.816406 570.875 293.863281 570.878906 292.683594 L 570.878906 274.421875 C 570.875 273.242188 569.941406 272.289062 568.789062 272.285156 Z M 568.789062 272.285156 "></path><path style=" stroke:none;fill-rule:nonzero;fill:rgb(42.352941%,38.823529%,100%);fill-opacity:1;" d="M 606.371094 147.734375 L 588.472656 147.734375 C 587.320312 147.738281 586.390625 148.691406 586.390625 149.867188 L 586.390625 168.140625 C 586.390625 169.3125 587.320312 170.265625 588.472656 170.265625 L 606.371094 170.265625 C 607.523438 170.265625 608.457031 169.3125 608.460938 168.140625 L 608.460938 149.867188 C 608.457031 148.691406 607.523438 147.738281 606.371094 147.734375 Z M 606.371094 147.734375 "></path><path style=" stroke:none;fill-rule:nonzero;fill:rgb(42.352941%,38.823529%,100%);fill-opacity:1;" d="M 606.371094 178.871094 L 588.472656 178.871094 C 587.320312 178.875 586.390625 179.828125 586.390625 181.003906 L 586.390625 199.277344 C 586.390625 200.453125 587.320312 201.402344 588.472656 201.402344 L 606.371094 201.402344 C 607.523438 201.402344 608.457031 200.453125 608.460938 199.277344 L 608.460938 181.003906 C 608.457031 179.828125 607.523438 178.875 606.371094 178.871094 Z M 606.371094 178.871094 "></path><path style=" stroke:none;fill-rule:nonzero;fill:rgb(90.196078%,90.196078%,90.196078%);fill-opacity:1;" d="M 606.371094 210.011719 L 588.472656 210.011719 C 587.320312 210.015625 586.390625 210.96875 586.390625 212.144531 L 586.390625 230.40625 C 586.386719 230.972656 586.605469 231.515625 586.996094 231.914062 C 587.386719 232.316406 587.917969 232.539062 588.472656 232.542969 L 606.371094 232.542969 C 607.523438 232.539062 608.460938 231.585938 608.460938 230.40625 L 608.460938 212.144531 C 608.457031 210.964844 607.523438 210.011719 606.371094 210.011719 Z M 606.371094 210.011719 "></path><path style=" stroke:none;fill-rule:nonzero;fill:rgb(42.352941%,38.823529%,100%);fill-opacity:1;" d="M 606.371094 241.148438 L 588.472656 241.148438 C 587.320312 241.152344 586.390625 242.105469 586.390625 243.28125 L 586.390625 261.546875 C 586.386719 262.109375 586.605469 262.652344 586.996094 263.054688 C 587.386719 263.453125 587.917969 263.679688 588.472656 263.679688 L 606.371094 263.679688 C 607.523438 263.679688 608.460938 262.722656 608.460938 261.546875 L 608.460938 243.28125 C 608.457031 242.105469 607.523438 241.152344 606.371094 241.148438 Z M 606.371094 241.148438 "></path><path style=" stroke:none;fill-rule:nonzero;fill:rgb(42.352941%,38.823529%,100%);fill-opacity:1;" d="M 606.371094 272.285156 L 588.472656 272.285156 C 587.917969 272.289062 587.386719 272.511719 586.996094 272.914062 C 586.605469 273.3125 586.386719 273.855469 586.390625 274.421875 L 586.390625 292.683594 C 586.386719 293.25 586.605469 293.792969 586.996094 294.191406 C 587.386719 294.59375 587.917969 294.816406 588.472656 294.816406 L 606.371094 294.816406 C 607.523438 294.816406 608.460938 293.863281 608.460938 292.683594 L 608.460938 274.421875 C 608.460938 273.242188 607.523438 272.289062 606.371094 272.285156 Z M 606.371094 272.285156 "></path><path style=" stroke:none;fill-rule:nonzero;fill:rgb(90.196078%,90.196078%,90.196078%);fill-opacity:1;" d="M 643.953125 147.734375 L 626.054688 147.734375 C 624.902344 147.738281 623.972656 148.691406 623.972656 149.867188 L 623.972656 168.140625 C 623.972656 169.3125 624.90625 170.265625 626.054688 170.265625 L 643.953125 170.265625 C 645.105469 170.265625 646.039062 169.3125 646.042969 168.140625 L 646.042969 149.867188 C 646.042969 148.691406 645.109375 147.738281 643.953125 147.734375 Z M 643.953125 147.734375 "></path><path style=" stroke:none;fill-rule:nonzero;fill:rgb(42.352941%,38.823529%,100%);fill-opacity:1;" d="M 643.953125 178.871094 L 626.054688 178.871094 C 624.902344 178.875 623.972656 179.828125 623.972656 181.003906 L 623.972656 199.277344 C 623.972656 200.453125 624.90625 201.402344 626.054688 201.402344 L 643.953125 201.402344 C 645.105469 201.402344 646.039062 200.453125 646.042969 199.277344 L 646.042969 181.003906 C 646.042969 179.828125 645.109375 178.875 643.953125 178.871094 Z M 643.953125 178.871094 "></path><path style=" stroke:none;fill-rule:nonzero;fill:rgb(42.352941%,38.823529%,100%);fill-opacity:1;" d="M 643.953125 210.011719 L 626.054688 210.011719 C 624.902344 210.015625 623.972656 210.96875 623.972656 212.144531 L 623.972656 230.40625 C 623.972656 230.972656 624.191406 231.515625 624.582031 231.914062 C 624.972656 232.316406 625.503906 232.539062 626.054688 232.542969 L 643.953125 232.542969 C 645.109375 232.539062 646.042969 231.585938 646.042969 230.40625 L 646.042969 212.144531 C 646.042969 210.964844 645.109375 210.011719 643.953125 210.011719 Z M 643.953125 210.011719 "></path><path style=" stroke:none;fill-rule:nonzero;fill:rgb(42.352941%,38.823529%,100%);fill-opacity:1;" d="M 643.953125 241.148438 L 626.054688 241.148438 C 624.902344 241.152344 623.972656 242.105469 623.972656 243.28125 L 623.972656 261.546875 C 623.972656 262.109375 624.191406 262.652344 624.582031 263.054688 C 624.972656 263.453125 625.503906 263.679688 626.054688 263.679688 L 643.953125 263.679688 C 645.109375 263.679688 646.042969 262.722656 646.042969 261.546875 L 646.042969 243.28125 C 646.042969 242.105469 645.109375 241.152344 643.953125 241.148438 Z M 643.953125 241.148438 "></path><path style=" stroke:none;fill-rule:nonzero;fill:rgb(90.196078%,90.196078%,90.196078%);fill-opacity:1;" d="M 643.953125 272.285156 L 626.054688 272.285156 C 625.503906 272.289062 624.972656 272.511719 624.582031 272.914062 C 624.191406 273.3125 623.972656 273.855469 623.972656 274.421875 L 623.972656 292.683594 C 623.972656 293.25 624.191406 293.792969 624.582031 294.191406 C 624.972656 294.59375 625.503906 294.816406 626.054688 294.816406 L 643.953125 294.816406 C 645.109375 294.816406 646.042969 293.863281 646.042969 292.683594 L 646.042969 274.421875 C 646.042969 273.242188 645.109375 272.289062 643.953125 272.285156 Z M 643.953125 272.285156 "></path><path style=" stroke:none;fill-rule:nonzero;fill:rgb(90.196078%,90.196078%,90.196078%);fill-opacity:1;" d="M 681.539062 147.734375 L 663.640625 147.734375 C 662.488281 147.738281 661.558594 148.691406 661.558594 149.867188 L 661.558594 168.140625 C 661.558594 169.3125 662.488281 170.265625 663.640625 170.265625 L 681.539062 170.265625 C 682.691406 170.265625 683.625 169.3125 683.628906 168.140625 L 683.628906 149.867188 C 683.625 148.691406 682.691406 147.738281 681.539062 147.734375 Z M 681.539062 147.734375 "></path><path style=" stroke:none;fill-rule:nonzero;fill:rgb(90.196078%,90.196078%,90.196078%);fill-opacity:1;" d="M 681.539062 178.871094 L 663.640625 178.871094 C 662.488281 178.875 661.558594 179.828125 661.558594 181.003906 L 661.558594 199.277344 C 661.558594 200.453125 662.488281 201.402344 663.640625 201.402344 L 681.539062 201.402344 C 682.691406 201.402344 683.625 200.453125 683.628906 199.277344 L 683.628906 181.003906 C 683.625 179.828125 682.691406 178.875 681.539062 178.871094 Z M 681.539062 178.871094 "></path><path style=" stroke:none;fill-rule:nonzero;fill:rgb(42.352941%,38.823529%,100%);fill-opacity:1;" d="M 681.539062 210.011719 L 663.640625 210.011719 C 662.488281 210.015625 661.558594 210.96875 661.558594 212.144531 L 661.558594 230.40625 C 661.554688 230.972656 661.773438 231.515625 662.164062 231.914062 C 662.554688 232.316406 663.085938 232.539062 663.640625 232.542969 L 681.539062 232.542969 C 682.691406 232.539062 683.628906 231.585938 683.628906 230.40625 L 683.628906 212.144531 C 683.625 210.964844 682.691406 210.011719 681.539062 210.011719 Z M 681.539062 210.011719 "></path><path style=" stroke:none;fill-rule:nonzero;fill:rgb(90.196078%,90.196078%,90.196078%);fill-opacity:1;" d="M 681.539062 241.148438 L 663.640625 241.148438 C 662.488281 241.152344 661.558594 242.105469 661.558594 243.28125 L 661.558594 261.546875 C 661.554688 262.109375 661.773438 262.652344 662.164062 263.054688 C 662.554688 263.453125 663.085938 263.679688 663.640625 263.679688 L 681.539062 263.679688 C 682.691406 263.679688 683.628906 262.722656 683.628906 261.546875 L 683.628906 243.28125 C 683.625 242.105469 682.691406 241.152344 681.539062 241.148438 Z M 681.539062 241.148438 "></path><path style=" stroke:none;fill-rule:nonzero;fill:rgb(90.196078%,90.196078%,90.196078%);fill-opacity:1;" d="M 681.539062 272.285156 L 663.640625 272.285156 C 663.085938 272.289062 662.554688 272.511719 662.164062 272.914062 C 661.773438 273.3125 661.554688 273.855469 661.558594 274.421875 L 661.558594 292.683594 C 661.554688 293.25 661.773438 293.792969 662.164062 294.191406 C 662.554688 294.59375 663.085938 294.816406 663.640625 294.816406 L 681.539062 294.816406 C 682.691406 294.816406 683.628906 293.863281 683.628906 292.683594 L 683.628906 274.421875 C 683.628906 273.242188 682.691406 272.289062 681.539062 272.285156 Z M 681.539062 272.285156 "></path><path style=" stroke:none;fill-rule:nonzero;fill:rgb(18.431373%,18.039216%,25.490196%);fill-opacity:1;" d="M 270.140625 541.582031 L 269.640625 541.582031 L 270.066406 541.523438 Z M 270.140625 541.582031 "></path><path style=" stroke:none;fill-rule:nonzero;fill:rgb(100%,71.372549%,71.372549%);fill-opacity:1;" d="M 282.230469 145.011719 C 282.230469 175.972656 257.644531 201.070312 227.316406 201.070312 C 196.988281 201.070312 172.402344 175.972656 172.402344 145.011719 C 172.402344 114.050781 196.988281 88.953125 227.316406 88.953125 C 257.644531 88.953125 282.230469 114.050781 282.230469 145.011719 Z M 282.230469 145.011719 "></path><path style=" stroke:none;fill-rule:nonzero;fill:rgb(18.431373%,18.039216%,25.490196%);fill-opacity:1;" d="M 275.40625 103.910156 C 275.40625 103.910156 289.769531 75.878906 258.167969 73.332031 C 258.167969 73.332031 231.230469 48.386719 203.773438 68.773438 C 203.773438 68.773438 188.796875 68.773438 180.609375 86.074219 C 180.609375 86.074219 168.828125 81.511719 166.242188 93.71875 C 166.242188 93.71875 157.621094 119.199219 166.242188 142.132812 C 174.859375 165.066406 177.722656 167.613281 177.722656 167.613281 C 177.722656 167.613281 163.558594 119.53125 198.035156 116.984375 C 232.507812 114.4375 271.085938 92.445312 273.957031 120.472656 C 276.832031 148.503906 281.152344 155.410156 281.152344 155.410156 C 281.152344 155.410156 308.441406 115.375 275.40625 103.910156 Z M 275.40625 103.910156 "></path><path style=" stroke:none;fill-rule:nonzero;fill:rgb(79.215686%,79.215686%,79.215686%);fill-opacity:1;" d="M 369.367188 283.167969 L 369.191406 284.117188 L 367.203125 294.816406 L 353.484375 368.828125 L 352.671875 373.183594 L 350.96875 382.398438 L 348.636719 394.96875 L 343.46875 422.828125 L 341.992188 430.808594 L 341.4375 433.804688 L 341.242188 434.855469 L 339.707031 443.117188 L 339.242188 445.613281 L 335.496094 473.945312 L 332.222656 498.632812 L 343.171875 509.808594 L 336.644531 516.472656 L 332.363281 541.523438 L 332.371094 541.578125 L 157.527344 541.578125 C 150.453125 536.902344 143.484375 532.082031 136.613281 527.113281 L 138.050781 516.117188 C 138.050781 516.117188 143.003906 496.484375 140.921875 494.136719 C 138.847656 491.789062 134.296875 487.597656 134.296875 487.597656 L 140.03125 473.945312 L 140.824219 472.050781 L 139.492188 443.796875 L 139.457031 443.117188 L 139.015625 433.804688 L 138.960938 432.605469 L 138.871094 430.808594 L 137.175781 394.96875 L 137.144531 394.378906 L 136.628906 383.515625 L 136.148438 373.183594 L 135.9375 368.828125 L 133.871094 325.234375 L 132.472656 295.628906 L 131.253906 269.859375 L 136.164062 268.160156 L 188.6875 249.9375 L 210.445312 221.0625 L 255.730469 221.40625 L 277.898438 221.578125 L 314.886719 256.597656 L 323.304688 260.699219 L 323.367188 260.734375 L 329.402344 263.679688 L 344.707031 271.136719 L 360.886719 279.03125 L 369.191406 283.078125 Z M 369.367188 283.167969 "></path><path style=" stroke:none;fill-rule:nonzero;fill:rgb(100%,71.372549%,71.372549%);fill-opacity:1;" d="M 216.300781 457.476562 C 209.582031 460.132812 202.054688 459.617188 195.75 456.066406 C 189.441406 452.511719 184.996094 446.292969 183.613281 439.074219 L 97.96875 426.667969 L 127.742188 392.289062 L 204.507812 409.339844 C 216.808594 407.738281 228.339844 415.78125 231.347656 428.0625 C 234.359375 440.34375 227.890625 452.980469 216.300781 457.476562 Z M 216.300781 457.476562 "></path><path style=" stroke:none;fill-rule:nonzero;fill:rgb(79.215686%,79.215686%,79.215686%);fill-opacity:1;" d="M 178.113281 394.96875 C 176.523438 392.917969 174.277344 391.5 171.769531 390.972656 L 136.628906 383.515625 L 133.019531 382.753906 C 128.777344 381.847656 125.117188 379.140625 122.949219 375.308594 C 121.839844 373.320312 121.167969 371.109375 120.980469 368.828125 C 120.8125 366.753906 121.054688 364.667969 121.695312 362.691406 L 133.871094 325.234375 L 141.773438 300.929688 C 142.730469 298 143.296875 294.949219 143.453125 291.863281 C 143.894531 283.324219 141.304688 274.910156 136.164062 268.160156 C 126.882812 255.976562 110.882812 251.433594 96.769531 256.96875 C 96.570312 257.042969 96.359375 257.125 96.160156 257.207031 C 86.167969 261.28125 78.632812 269.914062 75.816406 280.515625 L 67.234375 312.394531 L 49.527344 378.109375 C 45.9375 391.433594 48.226562 405.691406 55.789062 417.148438 C 63.351562 428.609375 75.433594 436.128906 88.878906 437.742188 L 139.492188 443.796875 L 162.914062 446.605469 C 168.527344 447.292969 173.722656 443.460938 174.839844 437.800781 C 174.878906 437.652344 174.90625 437.5 174.929688 437.347656 L 175.492188 433.804688 L 180.257812 403.953125 L 180.304688 403.652344 C 180.808594 400.570312 180.011719 397.417969 178.113281 394.96875 Z M 178.113281 394.96875 "></path><path style=" stroke:none;fill-rule:nonzero;fill:rgb(100%,71.372549%,71.372549%);fill-opacity:1;" d="M 270.851562 458.433594 C 277.871094 460.097656 285.25 458.503906 291.003906 454.078125 C 296.757812 449.652344 300.296875 442.855469 300.667969 435.507812 L 383.746094 410.898438 L 349.519531 381.148438 L 275.875 409.078125 C 263.476562 409.265625 253.171875 418.886719 251.890625 431.480469 C 250.609375 444.070312 258.753906 455.652344 270.851562 458.433594 Z M 270.851562 458.433594 "></path><path style=" stroke:none;fill-rule:nonzero;fill:rgb(79.215686%,79.215686%,79.215686%);fill-opacity:1;" d="M 424.996094 355.847656 L 385.480469 263.015625 C 382.25 255.394531 376.476562 249.1875 369.191406 245.496094 C 366.9375 244.363281 364.570312 243.484375 362.132812 242.871094 C 361.753906 242.773438 361.378906 242.683594 361 242.609375 C 355.828125 241.457031 350.46875 241.558594 345.34375 242.902344 C 335.867188 245.390625 327.875 251.871094 323.367188 260.734375 C 323.34375 260.769531 323.320312 260.808594 323.304688 260.847656 C 318.253906 270.824219 318.140625 282.65625 323.003906 292.726562 L 323.496094 293.726562 L 351.417969 350.972656 C 353.347656 354.933594 353.527344 359.546875 351.917969 363.648438 C 350.304688 367.753906 347.050781 370.960938 342.980469 372.464844 L 341.019531 373.183594 L 305.75 386.191406 C 300.25 388.195312 297.289062 394.285156 299.054688 399.964844 L 299.140625 400.253906 L 309.027344 432.550781 C 309.078125 432.695312 309.125 432.84375 309.179688 432.992188 C 309.269531 433.269531 309.375 433.542969 309.503906 433.804688 C 311.671875 438.773438 317.0625 441.394531 322.210938 439.984375 L 341.242188 434.855469 L 345.125 433.804688 L 394.273438 420.554688 C 407.363281 417.023438 418.289062 407.835938 424.191406 395.402344 C 430.09375 382.96875 430.386719 368.523438 424.996094 355.847656 Z M 424.996094 355.847656 "></path><path style=" stroke:none;fill-rule:nonzero;fill:rgb(24.705882%,23.921569%,33.72549%);fill-opacity:1;" d="M 36.085938 433.804688 C 47.476562 447.988281 59.761719 461.394531 72.859375 473.945312 L 436.136719 473.945312 C 443.421875 473.957031 449.324219 479.984375 449.332031 487.425781 L 449.855469 581.398438 C 472.203125 570.917969 493.132812 557.53125 512.121094 541.578125 C 517.394531 537.15625 522.503906 532.542969 527.449219 527.738281 C 530.6875 524.601562 533.851562 521.390625 536.933594 518.105469 C 560.054688 493.519531 578.773438 464.988281 592.25 433.804688 Z M 36.085938 433.804688 "></path><path style=" stroke:none;fill-rule:nonzero;fill:rgb(100%,100%,100%);fill-opacity:1;" d="M 536.933594 518.105469 C 533.855469 521.394531 530.695312 524.605469 527.449219 527.738281 L 450.121094 527.738281 L 450.121094 518.105469 Z M 536.933594 518.105469 "></path><path style=" stroke:none;fill-rule:nonzero;fill:rgb(24.705882%,23.921569%,33.72549%);fill-opacity:1;" d="M 368.644531 210.011719 C 367.863281 208.542969 366.363281 207.628906 364.730469 207.628906 L 101.222656 207.628906 C 98.765625 207.636719 96.773438 209.671875 96.769531 212.183594 L 96.769531 373.183594 L 369.191406 373.183594 L 369.191406 212.183594 C 369.195312 211.421875 369.003906 210.675781 368.644531 210.011719 Z M 368.644531 210.011719 "></path><path style=" stroke:none;fill-rule:nonzero;fill:rgb(24.705882%,23.921569%,33.72549%);fill-opacity:1;" d="M 96.53125 368.828125 L 96.53125 388.695312 C 96.53125 392.15625 99.28125 394.964844 102.675781 394.964844 L 203.222656 394.964844 L 203.222656 434.175781 L 201.886719 434.175781 C 201.449219 434.175781 201.089844 434.539062 201.089844 434.992188 L 201.089844 437.71875 C 201.089844 438.167969 201.449219 438.53125 201.886719 438.53125 L 264.308594 438.53125 C 264.746094 438.53125 265.105469 438.167969 265.105469 437.71875 L 265.105469 434.992188 C 265.105469 434.539062 264.746094 434.175781 264.308594 434.175781 L 262.972656 434.175781 L 262.972656 394.964844 L 363.519531 394.964844 C 366.914062 394.964844 369.664062 392.15625 369.664062 388.695312 L 369.664062 368.828125 Z M 96.53125 368.828125 "></path><path style=" stroke:none;fill-rule:nonzero;fill:rgb(42.352941%,38.823529%,100%);fill-opacity:1;" d="M 254.960938 286.117188 C 254.960938 300.300781 243.695312 311.804688 229.796875 311.804688 C 215.898438 311.804688 204.632812 300.300781 204.632812 286.117188 C 204.632812 271.929688 215.898438 260.429688 229.796875 260.429688 C 243.695312 260.429688 254.960938 271.929688 254.960938 286.117188 Z M 254.960938 286.117188 "></path><path style=" stroke:none;fill-rule:nonzero;fill:rgb(42.352941%,38.823529%,100%);fill-opacity:1;" d="M 293.910156 141.949219 L 289.890625 141.949219 C 289.890625 110.933594 259.820312 90.609375 229.488281 90.59375 C 225.074219 90.578125 220.671875 91.015625 216.347656 91.898438 C 211.476562 92.890625 206.421875 94.078125 201.453125 95.628906 C 181.867188 101.757812 163.699219 113.609375 163.699219 141.949219 C 163.695312 147.453125 164.382812 152.933594 165.742188 158.261719 L 161.851562 159.292969 C 160.410156 153.628906 159.679688 147.800781 159.679688 141.949219 C 159.679688 117.183594 169.640625 100.175781 186.839844 90.035156 C 195.882812 84.703125 206.917969 81.261719 219.5625 79.589844 C 224.824219 78.875 230.140625 78.710938 235.4375 79.097656 C 270.320312 81.65625 293.910156 108.964844 293.910156 141.949219 Z M 293.910156 141.949219 "></path><path style=" stroke:none;fill-rule:nonzero;fill:rgb(42.352941%,38.823529%,100%);fill-opacity:1;" d="M 300.605469 144.222656 L 299.019531 132.273438 C 298.628906 129.257812 297.207031 126.480469 295.003906 124.429688 C 292.136719 121.722656 288.207031 120.515625 284.351562 121.148438 L 281.835938 121.5 C 280.445312 121.6875 279.1875 122.4375 278.339844 123.578125 C 277.488281 124.714844 277.113281 126.152344 277.304688 127.574219 L 280.960938 155.09375 C 281.269531 157.394531 282.984375 159.234375 285.222656 159.664062 C 285.542969 159.730469 285.871094 159.761719 286.203125 159.761719 C 286.4375 159.761719 286.675781 159.746094 286.910156 159.710938 L 289.722656 159.328125 C 293.1875 158.855469 296.3125 156.949219 298.355469 154.050781 C 298.570312 153.738281 298.78125 153.417969 298.972656 153.089844 C 300.480469 150.40625 301.054688 147.28125 300.605469 144.222656 Z M 300.605469 144.222656 "></path><path style=" stroke:none;fill-rule:nonzero;fill:rgb(100%,100%,100%);fill-opacity:1;" d="M 280.214844 122 C 279.476562 122.367188 278.832031 122.90625 278.339844 123.578125 C 277.488281 124.714844 277.113281 126.152344 277.304688 127.574219 L 280.960938 155.09375 C 281.269531 157.394531 282.984375 159.234375 285.222656 159.664062 Z M 280.214844 122 "></path><path style=" stroke:none;fill-rule:nonzero;fill:rgb(24.705882%,23.921569%,33.72549%);fill-opacity:1;" d="M 300.605469 144.222656 L 299.019531 132.273438 C 298.628906 129.257812 297.207031 126.480469 295.003906 124.429688 L 298.644531 151.8125 C 298.699219 152.25 298.808594 152.679688 298.972656 153.089844 C 300.480469 150.40625 301.054688 147.28125 300.605469 144.222656 Z M 300.605469 144.222656 "></path><path style=" stroke:none;fill-rule:nonzero;fill:rgb(24.705882%,23.921569%,33.72549%);fill-opacity:1;" d="M 289.324219 146.863281 C 288.90625 143.71875 287.675781 141.292969 286.578125 141.445312 C 285.476562 141.597656 284.925781 144.269531 285.34375 147.414062 C 285.761719 150.554688 286.992188 152.980469 288.089844 152.828125 C 289.191406 152.675781 289.742188 150.003906 289.324219 146.863281 Z M 289.324219 146.863281 "></path><path style=" stroke:none;fill-rule:nonzero;fill:rgb(24.705882%,23.921569%,33.72549%);fill-opacity:1;" d="M 286.914062 132.09375 C 286.496094 128.949219 285.265625 126.523438 284.167969 126.675781 C 283.066406 126.828125 282.515625 129.5 282.933594 132.644531 C 283.347656 135.789062 284.578125 138.210938 285.679688 138.058594 C 286.777344 137.90625 287.332031 135.234375 286.914062 132.09375 Z M 286.914062 132.09375 "></path><path style=" stroke:none;fill-rule:nonzero;fill:rgb(24.705882%,23.921569%,33.72549%);fill-opacity:1;" d="M 302.183594 137.835938 C 301.769531 134.691406 300.539062 132.269531 299.4375 132.421875 C 298.339844 132.574219 297.785156 135.246094 298.203125 138.386719 C 298.621094 141.53125 299.851562 143.957031 300.949219 143.804688 C 302.050781 143.652344 302.601562 140.980469 302.183594 137.835938 Z M 302.183594 137.835938 "></path><path style=" stroke:none;fill-rule:nonzero;fill:rgb(24.705882%,23.921569%,33.72549%);fill-opacity:1;" d="M 229.488281 90.59375 C 225.074219 90.578125 220.671875 91.015625 216.347656 91.898438 C 211.476562 92.890625 206.421875 94.078125 201.453125 95.628906 C 193.695312 95.246094 187.988281 93.195312 186.839844 90.035156 C 195.882812 84.699219 206.917969 81.261719 219.5625 79.589844 C 224.824219 78.875 230.140625 78.710938 235.4375 79.097656 C 236.570312 79.777344 237.363281 80.914062 237.621094 82.230469 C 238 85.085938 234.808594 88.121094 229.488281 90.59375 Z M 229.488281 90.59375 "></path><path style=" stroke:none;fill-rule:nonzero;fill:rgb(42.352941%,38.823529%,100%);fill-opacity:1;" d="M 178.175781 170.421875 L 171.988281 144.15625 C 171.535156 142.21875 169.988281 140.746094 168.066406 140.421875 C 167.796875 140.378906 167.53125 140.359375 167.261719 140.355469 C 166.882812 140.359375 166.503906 140.40625 166.136719 140.496094 L 163.742188 141.085938 C 157.320312 142.671875 153.367188 149.265625 154.90625 155.824219 L 157.679688 167.605469 C 158.3125 170.378906 159.820312 172.863281 161.972656 174.679688 C 162.320312 174.964844 162.6875 175.230469 163.066406 175.472656 C 165.789062 177.214844 169.082031 177.761719 172.203125 176.984375 L 174.589844 176.394531 C 175.222656 176.242188 175.816406 175.960938 176.335938 175.566406 C 177.914062 174.390625 178.640625 172.355469 178.175781 170.421875 Z M 178.175781 170.421875 "></path><path style=" stroke:none;fill-rule:nonzero;fill:rgb(24.705882%,23.921569%,33.72549%);fill-opacity:1;" d="M 165.839844 159.46875 C 165.113281 156.386719 163.648438 154.101562 162.570312 154.363281 C 161.488281 154.628906 161.203125 157.34375 161.929688 160.429688 C 162.660156 163.511719 164.121094 165.796875 165.203125 165.535156 C 166.28125 165.269531 166.566406 162.554688 165.839844 159.46875 Z M 165.839844 159.46875 "></path><path style=" stroke:none;fill-rule:nonzero;fill:rgb(24.705882%,23.921569%,33.72549%);fill-opacity:1;" d="M 157.800781 161.929688 C 157.074219 158.847656 155.609375 156.5625 154.53125 156.828125 C 153.453125 157.089844 153.167969 159.804688 153.894531 162.890625 C 154.621094 165.976562 156.085938 168.261719 157.164062 167.996094 C 158.242188 167.730469 158.527344 165.015625 157.800781 161.929688 Z M 157.800781 161.929688 "></path><path style=" stroke:none;fill-rule:nonzero;fill:rgb(100%,100%,100%);fill-opacity:1;" d="M 178.570312 170.320312 L 172.382812 144.058594 C 171.886719 141.960938 170.210938 140.371094 168.128906 140.019531 L 176.578125 175.894531 C 178.28125 174.617188 179.070312 172.417969 178.570312 170.320312 Z M 178.570312 170.320312 "></path><path style=" stroke:none;fill-rule:nonzero;fill:rgb(24.705882%,23.921569%,33.72549%);fill-opacity:1;" d="M 156.304688 150.621094 C 156.136719 149.890625 155.8125 149.207031 155.367188 148.609375 C 154.496094 150.910156 154.335938 153.425781 154.90625 155.824219 L 157.679688 167.605469 C 158.3125 170.378906 159.820312 172.863281 161.972656 174.679688 Z M 156.304688 150.621094 "></path></g></svg>